<?xml version="1.0" encoding="utf-8" standalone="no"?>
<!DOCTYPE svg PUBLIC "-//W3C//DTD SVG 1.1//EN"
  "http://www.w3.org/Graphics/SVG/1.1/DTD/svg11.dtd">
<svg xmlns:xlink="http://www.w3.org/1999/xlink" width="582.440781pt" height="376.128937pt" viewBox="0 0 582.440781 376.128937" xmlns="http://www.w3.org/2000/svg" version="1.1">
 <metadata>
  <rdf:RDF xmlns:dc="http://purl.org/dc/elements/1.1/" xmlns:cc="http://creativecommons.org/ns#" xmlns:rdf="http://www.w3.org/1999/02/22-rdf-syntax-ns#">
   <cc:Work>
    <dc:type rdf:resource="http://purl.org/dc/dcmitype/StillImage"/>
    <dc:date>2026-07-29T22:25:26.862510</dc:date>
    <dc:format>image/svg+xml</dc:format>
    <dc:creator>
     <cc:Agent>
      <dc:title>Matplotlib v3.11.0, https://matplotlib.org/</dc:title>
     </cc:Agent>
    </dc:creator>
   </cc:Work>
  </rdf:RDF>
 </metadata>
 <defs>
  <style type="text/css">*{stroke-linejoin: round; stroke-linecap: butt}</style>
 </defs>
 <g id="figure_1">
  <g id="patch_1">
   <path d="M 0 376.128937 
L 582.440781 376.128937 
L 582.440781 0 
L 0 0 
z
" style="fill: #ffffff"/>
  </g>
  <g id="axes_1">
   <g id="patch_2">
    <path d="M 45.800781 317.878594 
L 575.240781 317.878594 
L 575.240781 22.318125 
L 45.800781 22.318125 
z
" style="fill: #ffffff"/>
   </g>
   <g id="FillBetweenPolyCollection_1">
    <defs>
     <path id="m4bf3c5cb39" d="M 69.866236 -228.984838 
L 69.866236 -225.015961 
L 127.276935 -267.118489 
L 190.193509 -233.826467 
L 247.604208 -240.684813 
L 310.520781 -248.4488 
L 367.931481 -255.079617 
L 430.848054 -214.220558 
L 488.258753 -225.506819 
L 551.175327 -258.901989 
L 551.175327 -324.570365 
L 551.175327 -324.570365 
L 488.258753 -268.31932 
L 430.848054 -266.525401 
L 367.931481 -340.376246 
L 310.520781 -256.459068 
L 247.604208 -284.63807 
L 190.193509 -264.193871 
L 127.276935 -282.939444 
L 69.866236 -228.984838 
z
"/>
    </defs>
    <g clip-path="url(#p3925f7d2e9)">
     <use xlink:href="#m4bf3c5cb39" x="0" y="376.128937" style="fill: #1f77b4; fill-opacity: 0.18"/>
    </g>
   </g>
   <g id="FillBetweenPolyCollection_2">
    <defs>
     <path id="m88d6b3ef9d" d="M 69.866236 -163.955451 
L 69.866236 -92.070441 
L 127.276935 -98.517657 
L 190.193509 -71.684911 
L 247.604208 -114.640338 
L 310.520781 -96.210371 
L 367.931481 -98.375155 
L 430.848054 -80.494716 
L 488.258753 -88.328567 
L 551.175327 -90.301148 
L 551.175327 -119.086422 
L 551.175327 -119.086422 
L 488.258753 -123.001056 
L 430.848054 -106.009379 
L 367.931481 -102.000355 
L 310.520781 -112.987359 
L 247.604208 -144.198289 
L 190.193509 -85.632815 
L 127.276935 -116.641357 
L 69.866236 -163.955451 
z
"/>
    </defs>
    <g clip-path="url(#p3925f7d2e9)">
     <use xlink:href="#m88d6b3ef9d" x="0" y="376.128937" style="fill: #ff7f0e; fill-opacity: 0.18"/>
    </g>
   </g>
   <g id="FillBetweenPolyCollection_3">
    <defs>
     <path id="me541fa1887" d="M 69.866236 -179.031571 
L 69.866236 -162.234325 
L 127.276935 -152.259336 
L 190.193509 -115.118146 
L 247.604208 -126.36758 
L 310.520781 -127.261379 
L 367.931481 -160.793735 
L 430.848054 -112.530274 
L 488.258753 -147.826005 
L 551.175327 -141.505346 
L 551.175327 -171.186785 
L 551.175327 -171.186785 
L 488.258753 -167.570177 
L 430.848054 -154.599191 
L 367.931481 -173.411966 
L 310.520781 -167.551741 
L 247.604208 -170.794606 
L 190.193509 -136.190219 
L 127.276935 -168.448326 
L 69.866236 -179.031571 
z
"/>
    </defs>
    <g clip-path="url(#p3925f7d2e9)">
     <use xlink:href="#me541fa1887" x="0" y="376.128937" style="fill: #2ca02c; fill-opacity: 0.18"/>
    </g>
   </g>
   <g id="matplotlib.axis_1">
    <g id="xtick_1">
     <g id="line2d_1">
      <path d="M 69.866236 317.878594 
L 69.866236 22.318125 
" clip-path="url(#p3925f7d2e9)" style="fill: none; stroke: #b0b0b0; stroke-opacity: 0.35; stroke-width: 0.7; stroke-linecap: square"/>
     </g>
     <g id="line2d_2">
      <defs>
       <path id="m370b0bb797" d="M 0 0 
L 0 3.5 
" style="stroke: #000000; stroke-width: 0.8"/>
      </defs>
      <g>
       <use xlink:href="#m370b0bb797" x="69.866236" y="317.878594" style="stroke: #000000; stroke-width: 0.8"/>
      </g>
     </g>
     <g id="text_1">
      <!-- $\mathdefault{10^{-2}}$ -->
      <g transform="translate(58.116236 334.278594) scale(0.1 -0.1)">
       <defs>
        <path id="DejaVuSans-14" d="M 794 531 
L 1825 531 
L 1825 4091 
L 703 3866 
L 703 4441 
L 1819 4666 
L 2450 4666 
L 2450 531 
L 3481 531 
L 3481 0 
L 794 0 
L 794 531 
z
" transform="scale(0.015625)"/>
        <path id="DejaVuSans-13" d="M 2034 4250 
Q 1547 4250 1301 3770 
Q 1056 3291 1056 2328 
Q 1056 1369 1301 889 
Q 1547 409 2034 409 
Q 2525 409 2770 889 
Q 3016 1369 3016 2328 
Q 3016 3291 2770 3770 
Q 2525 4250 2034 4250 
z
M 2034 4750 
Q 2819 4750 3233 4129 
Q 3647 3509 3647 2328 
Q 3647 1150 3233 529 
Q 2819 -91 2034 -91 
Q 1250 -91 836 529 
Q 422 1150 422 2328 
Q 422 3509 836 4129 
Q 1250 4750 2034 4750 
z
" transform="scale(0.015625)"/>
        <path id="DejaVuSans-c9c" d="M 678 2272 
L 4684 2272 
L 4684 1741 
L 678 1741 
L 678 2272 
z
" transform="scale(0.015625)"/>
        <path id="DejaVuSans-15" d="M 1228 531 
L 3431 531 
L 3431 0 
L 469 0 
L 469 531 
Q 828 903 1448 1529 
Q 2069 2156 2228 2338 
Q 2531 2678 2651 2914 
Q 2772 3150 2772 3378 
Q 2772 3750 2511 3984 
Q 2250 4219 1831 4219 
Q 1534 4219 1204 4116 
Q 875 4013 500 3803 
L 500 4441 
Q 881 4594 1212 4672 
Q 1544 4750 1819 4750 
Q 2544 4750 2975 4387 
Q 3406 4025 3406 3419 
Q 3406 3131 3298 2873 
Q 3191 2616 2906 2266 
Q 2828 2175 2409 1742 
Q 1991 1309 1228 531 
z
" transform="scale(0.015625)"/>
       </defs>
       <use xlink:href="#DejaVuSans-14" transform="translate(0 0.746875)"/>
       <use xlink:href="#DejaVuSans-13" transform="translate(63.623047 0.746875)"/>
       <use xlink:href="#DejaVuSans-c9c" transform="translate(128.203125 42.046875) scale(0.7)"/>
       <use xlink:href="#DejaVuSans-15" transform="translate(186.855469 42.046875) scale(0.7)"/>
      </g>
     </g>
    </g>
    <g id="xtick_2">
     <g id="line2d_3">
      <path d="M 190.193509 317.878594 
L 190.193509 22.318125 
" clip-path="url(#p3925f7d2e9)" style="fill: none; stroke: #b0b0b0; stroke-opacity: 0.35; stroke-width: 0.7; stroke-linecap: square"/>
     </g>
     <g id="line2d_4">
      <g>
       <use xlink:href="#m370b0bb797" x="190.193509" y="317.878594" style="stroke: #000000; stroke-width: 0.8"/>
      </g>
     </g>
     <g id="text_2">
      <!-- $\mathdefault{10^{-1}}$ -->
      <g transform="translate(178.443509 334.178594) scale(0.1 -0.1)">
       <use xlink:href="#DejaVuSans-14" transform="translate(0 0.665625)"/>
       <use xlink:href="#DejaVuSans-13" transform="translate(63.623047 0.665625)"/>
       <use xlink:href="#DejaVuSans-c9c" transform="translate(128.203125 41.965625) scale(0.7)"/>
       <use xlink:href="#DejaVuSans-14" transform="translate(186.855469 41.965625) scale(0.7)"/>
      </g>
     </g>
    </g>
    <g id="xtick_3">
     <g id="line2d_5">
      <path d="M 310.520781 317.878594 
L 310.520781 22.318125 
" clip-path="url(#p3925f7d2e9)" style="fill: none; stroke: #b0b0b0; stroke-opacity: 0.35; stroke-width: 0.7; stroke-linecap: square"/>
     </g>
     <g id="line2d_6">
      <g>
       <use xlink:href="#m370b0bb797" x="310.520781" y="317.878594" style="stroke: #000000; stroke-width: 0.8"/>
      </g>
     </g>
     <g id="text_3">
      <!-- $\mathdefault{10^{0}}$ -->
      <g transform="translate(301.720781 334.278594) scale(0.1 -0.1)">
       <use xlink:href="#DejaVuSans-14" transform="translate(0 0.746875)"/>
       <use xlink:href="#DejaVuSans-13" transform="translate(63.623047 0.746875)"/>
       <use xlink:href="#DejaVuSans-13" transform="translate(128.203125 42.046875) scale(0.7)"/>
      </g>
     </g>
    </g>
    <g id="xtick_4">
     <g id="line2d_7">
      <path d="M 430.848054 317.878594 
L 430.848054 22.318125 
" clip-path="url(#p3925f7d2e9)" style="fill: none; stroke: #b0b0b0; stroke-opacity: 0.35; stroke-width: 0.7; stroke-linecap: square"/>
     </g>
     <g id="line2d_8">
      <g>
       <use xlink:href="#m370b0bb797" x="430.848054" y="317.878594" style="stroke: #000000; stroke-width: 0.8"/>
      </g>
     </g>
     <g id="text_4">
      <!-- $\mathdefault{10^{1}}$ -->
      <g transform="translate(422.048054 334.178594) scale(0.1 -0.1)">
       <use xlink:href="#DejaVuSans-14" transform="translate(0 0.665625)"/>
       <use xlink:href="#DejaVuSans-13" transform="translate(63.623047 0.665625)"/>
       <use xlink:href="#DejaVuSans-14" transform="translate(128.203125 41.965625) scale(0.7)"/>
      </g>
     </g>
    </g>
    <g id="xtick_5">
     <g id="line2d_9">
      <path d="M 551.175327 317.878594 
L 551.175327 22.318125 
" clip-path="url(#p3925f7d2e9)" style="fill: none; stroke: #b0b0b0; stroke-opacity: 0.35; stroke-width: 0.7; stroke-linecap: square"/>
     </g>
     <g id="line2d_10">
      <g>
       <use xlink:href="#m370b0bb797" x="551.175327" y="317.878594" style="stroke: #000000; stroke-width: 0.8"/>
      </g>
     </g>
     <g id="text_5">
      <!-- $\mathdefault{10^{2}}$ -->
      <g transform="translate(542.375327 334.278594) scale(0.1 -0.1)">
       <use xlink:href="#DejaVuSans-14" transform="translate(0 0.746875)"/>
       <use xlink:href="#DejaVuSans-13" transform="translate(63.623047 0.746875)"/>
       <use xlink:href="#DejaVuSans-15" transform="translate(128.203125 42.046875) scale(0.7)"/>
      </g>
     </g>
    </g>
    <g id="xtick_6">
     <g id="line2d_11">
      <path d="M 51.227305 317.878594 
L 51.227305 22.318125 
" clip-path="url(#p3925f7d2e9)" style="fill: none; stroke: #b0b0b0; stroke-opacity: 0.15; stroke-width: 0.4; stroke-linecap: square"/>
     </g>
     <g id="line2d_12">
      <defs>
       <path id="m72a71ed72a" d="M 0 0 
L 0 2 
" style="stroke: #000000; stroke-width: 0.6"/>
      </defs>
      <g>
       <use xlink:href="#m72a71ed72a" x="51.227305" y="317.878594" style="stroke: #000000; stroke-width: 0.6"/>
      </g>
     </g>
    </g>
    <g id="xtick_7">
     <g id="line2d_13">
      <path d="M 58.205318 317.878594 
L 58.205318 22.318125 
" clip-path="url(#p3925f7d2e9)" style="fill: none; stroke: #b0b0b0; stroke-opacity: 0.15; stroke-width: 0.4; stroke-linecap: square"/>
     </g>
     <g id="line2d_14">
      <g>
       <use xlink:href="#m72a71ed72a" x="58.205318" y="317.878594" style="stroke: #000000; stroke-width: 0.6"/>
      </g>
     </g>
    </g>
    <g id="xtick_8">
     <g id="line2d_15">
      <path d="M 64.360362 317.878594 
L 64.360362 22.318125 
" clip-path="url(#p3925f7d2e9)" style="fill: none; stroke: #b0b0b0; stroke-opacity: 0.15; stroke-width: 0.4; stroke-linecap: square"/>
     </g>
     <g id="line2d_16">
      <g>
       <use xlink:href="#m72a71ed72a" x="64.360362" y="317.878594" style="stroke: #000000; stroke-width: 0.6"/>
      </g>
     </g>
    </g>
    <g id="xtick_9">
     <g id="line2d_17">
      <path d="M 106.088354 317.878594 
L 106.088354 22.318125 
" clip-path="url(#p3925f7d2e9)" style="fill: none; stroke: #b0b0b0; stroke-opacity: 0.15; stroke-width: 0.4; stroke-linecap: square"/>
     </g>
     <g id="line2d_18">
      <g>
       <use xlink:href="#m72a71ed72a" x="106.088354" y="317.878594" style="stroke: #000000; stroke-width: 0.6"/>
      </g>
     </g>
    </g>
    <g id="xtick_10">
     <g id="line2d_19">
      <path d="M 127.276935 317.878594 
L 127.276935 22.318125 
" clip-path="url(#p3925f7d2e9)" style="fill: none; stroke: #b0b0b0; stroke-opacity: 0.15; stroke-width: 0.4; stroke-linecap: square"/>
     </g>
     <g id="line2d_20">
      <g>
       <use xlink:href="#m72a71ed72a" x="127.276935" y="317.878594" style="stroke: #000000; stroke-width: 0.6"/>
      </g>
     </g>
    </g>
    <g id="xtick_11">
     <g id="line2d_21">
      <path d="M 142.310473 317.878594 
L 142.310473 22.318125 
" clip-path="url(#p3925f7d2e9)" style="fill: none; stroke: #b0b0b0; stroke-opacity: 0.15; stroke-width: 0.4; stroke-linecap: square"/>
     </g>
     <g id="line2d_22">
      <g>
       <use xlink:href="#m72a71ed72a" x="142.310473" y="317.878594" style="stroke: #000000; stroke-width: 0.6"/>
      </g>
     </g>
    </g>
    <g id="xtick_12">
     <g id="line2d_23">
      <path d="M 153.97139 317.878594 
L 153.97139 22.318125 
" clip-path="url(#p3925f7d2e9)" style="fill: none; stroke: #b0b0b0; stroke-opacity: 0.15; stroke-width: 0.4; stroke-linecap: square"/>
     </g>
     <g id="line2d_24">
      <g>
       <use xlink:href="#m72a71ed72a" x="153.97139" y="317.878594" style="stroke: #000000; stroke-width: 0.6"/>
      </g>
     </g>
    </g>
    <g id="xtick_13">
     <g id="line2d_25">
      <path d="M 163.499054 317.878594 
L 163.499054 22.318125 
" clip-path="url(#p3925f7d2e9)" style="fill: none; stroke: #b0b0b0; stroke-opacity: 0.15; stroke-width: 0.4; stroke-linecap: square"/>
     </g>
     <g id="line2d_26">
      <g>
       <use xlink:href="#m72a71ed72a" x="163.499054" y="317.878594" style="stroke: #000000; stroke-width: 0.6"/>
      </g>
     </g>
    </g>
    <g id="xtick_14">
     <g id="line2d_27">
      <path d="M 171.554578 317.878594 
L 171.554578 22.318125 
" clip-path="url(#p3925f7d2e9)" style="fill: none; stroke: #b0b0b0; stroke-opacity: 0.15; stroke-width: 0.4; stroke-linecap: square"/>
     </g>
     <g id="line2d_28">
      <g>
       <use xlink:href="#m72a71ed72a" x="171.554578" y="317.878594" style="stroke: #000000; stroke-width: 0.6"/>
      </g>
     </g>
    </g>
    <g id="xtick_15">
     <g id="line2d_29">
      <path d="M 178.532591 317.878594 
L 178.532591 22.318125 
" clip-path="url(#p3925f7d2e9)" style="fill: none; stroke: #b0b0b0; stroke-opacity: 0.15; stroke-width: 0.4; stroke-linecap: square"/>
     </g>
     <g id="line2d_30">
      <g>
       <use xlink:href="#m72a71ed72a" x="178.532591" y="317.878594" style="stroke: #000000; stroke-width: 0.6"/>
      </g>
     </g>
    </g>
    <g id="xtick_16">
     <g id="line2d_31">
      <path d="M 184.687634 317.878594 
L 184.687634 22.318125 
" clip-path="url(#p3925f7d2e9)" style="fill: none; stroke: #b0b0b0; stroke-opacity: 0.15; stroke-width: 0.4; stroke-linecap: square"/>
     </g>
     <g id="line2d_32">
      <g>
       <use xlink:href="#m72a71ed72a" x="184.687634" y="317.878594" style="stroke: #000000; stroke-width: 0.6"/>
      </g>
     </g>
    </g>
    <g id="xtick_17">
     <g id="line2d_33">
      <path d="M 226.415627 317.878594 
L 226.415627 22.318125 
" clip-path="url(#p3925f7d2e9)" style="fill: none; stroke: #b0b0b0; stroke-opacity: 0.15; stroke-width: 0.4; stroke-linecap: square"/>
     </g>
     <g id="line2d_34">
      <g>
       <use xlink:href="#m72a71ed72a" x="226.415627" y="317.878594" style="stroke: #000000; stroke-width: 0.6"/>
      </g>
     </g>
    </g>
    <g id="xtick_18">
     <g id="line2d_35">
      <path d="M 247.604208 317.878594 
L 247.604208 22.318125 
" clip-path="url(#p3925f7d2e9)" style="fill: none; stroke: #b0b0b0; stroke-opacity: 0.15; stroke-width: 0.4; stroke-linecap: square"/>
     </g>
     <g id="line2d_36">
      <g>
       <use xlink:href="#m72a71ed72a" x="247.604208" y="317.878594" style="stroke: #000000; stroke-width: 0.6"/>
      </g>
     </g>
    </g>
    <g id="xtick_19">
     <g id="line2d_37">
      <path d="M 262.637745 317.878594 
L 262.637745 22.318125 
" clip-path="url(#p3925f7d2e9)" style="fill: none; stroke: #b0b0b0; stroke-opacity: 0.15; stroke-width: 0.4; stroke-linecap: square"/>
     </g>
     <g id="line2d_38">
      <g>
       <use xlink:href="#m72a71ed72a" x="262.637745" y="317.878594" style="stroke: #000000; stroke-width: 0.6"/>
      </g>
     </g>
    </g>
    <g id="xtick_20">
     <g id="line2d_39">
      <path d="M 274.298663 317.878594 
L 274.298663 22.318125 
" clip-path="url(#p3925f7d2e9)" style="fill: none; stroke: #b0b0b0; stroke-opacity: 0.15; stroke-width: 0.4; stroke-linecap: square"/>
     </g>
     <g id="line2d_40">
      <g>
       <use xlink:href="#m72a71ed72a" x="274.298663" y="317.878594" style="stroke: #000000; stroke-width: 0.6"/>
      </g>
     </g>
    </g>
    <g id="xtick_21">
     <g id="line2d_41">
      <path d="M 283.826326 317.878594 
L 283.826326 22.318125 
" clip-path="url(#p3925f7d2e9)" style="fill: none; stroke: #b0b0b0; stroke-opacity: 0.15; stroke-width: 0.4; stroke-linecap: square"/>
     </g>
     <g id="line2d_42">
      <g>
       <use xlink:href="#m72a71ed72a" x="283.826326" y="317.878594" style="stroke: #000000; stroke-width: 0.6"/>
      </g>
     </g>
    </g>
    <g id="xtick_22">
     <g id="line2d_43">
      <path d="M 291.881851 317.878594 
L 291.881851 22.318125 
" clip-path="url(#p3925f7d2e9)" style="fill: none; stroke: #b0b0b0; stroke-opacity: 0.15; stroke-width: 0.4; stroke-linecap: square"/>
     </g>
     <g id="line2d_44">
      <g>
       <use xlink:href="#m72a71ed72a" x="291.881851" y="317.878594" style="stroke: #000000; stroke-width: 0.6"/>
      </g>
     </g>
    </g>
    <g id="xtick_23">
     <g id="line2d_45">
      <path d="M 298.859864 317.878594 
L 298.859864 22.318125 
" clip-path="url(#p3925f7d2e9)" style="fill: none; stroke: #b0b0b0; stroke-opacity: 0.15; stroke-width: 0.4; stroke-linecap: square"/>
     </g>
     <g id="line2d_46">
      <g>
       <use xlink:href="#m72a71ed72a" x="298.859864" y="317.878594" style="stroke: #000000; stroke-width: 0.6"/>
      </g>
     </g>
    </g>
    <g id="xtick_24">
     <g id="line2d_47">
      <path d="M 305.014907 317.878594 
L 305.014907 22.318125 
" clip-path="url(#p3925f7d2e9)" style="fill: none; stroke: #b0b0b0; stroke-opacity: 0.15; stroke-width: 0.4; stroke-linecap: square"/>
     </g>
     <g id="line2d_48">
      <g>
       <use xlink:href="#m72a71ed72a" x="305.014907" y="317.878594" style="stroke: #000000; stroke-width: 0.6"/>
      </g>
     </g>
    </g>
    <g id="xtick_25">
     <g id="line2d_49">
      <path d="M 346.7429 317.878594 
L 346.7429 22.318125 
" clip-path="url(#p3925f7d2e9)" style="fill: none; stroke: #b0b0b0; stroke-opacity: 0.15; stroke-width: 0.4; stroke-linecap: square"/>
     </g>
     <g id="line2d_50">
      <g>
       <use xlink:href="#m72a71ed72a" x="346.7429" y="317.878594" style="stroke: #000000; stroke-width: 0.6"/>
      </g>
     </g>
    </g>
    <g id="xtick_26">
     <g id="line2d_51">
      <path d="M 367.931481 317.878594 
L 367.931481 22.318125 
" clip-path="url(#p3925f7d2e9)" style="fill: none; stroke: #b0b0b0; stroke-opacity: 0.15; stroke-width: 0.4; stroke-linecap: square"/>
     </g>
     <g id="line2d_52">
      <g>
       <use xlink:href="#m72a71ed72a" x="367.931481" y="317.878594" style="stroke: #000000; stroke-width: 0.6"/>
      </g>
     </g>
    </g>
    <g id="xtick_27">
     <g id="line2d_53">
      <path d="M 382.965018 317.878594 
L 382.965018 22.318125 
" clip-path="url(#p3925f7d2e9)" style="fill: none; stroke: #b0b0b0; stroke-opacity: 0.15; stroke-width: 0.4; stroke-linecap: square"/>
     </g>
     <g id="line2d_54">
      <g>
       <use xlink:href="#m72a71ed72a" x="382.965018" y="317.878594" style="stroke: #000000; stroke-width: 0.6"/>
      </g>
     </g>
    </g>
    <g id="xtick_28">
     <g id="line2d_55">
      <path d="M 394.625936 317.878594 
L 394.625936 22.318125 
" clip-path="url(#p3925f7d2e9)" style="fill: none; stroke: #b0b0b0; stroke-opacity: 0.15; stroke-width: 0.4; stroke-linecap: square"/>
     </g>
     <g id="line2d_56">
      <g>
       <use xlink:href="#m72a71ed72a" x="394.625936" y="317.878594" style="stroke: #000000; stroke-width: 0.6"/>
      </g>
     </g>
    </g>
    <g id="xtick_29">
     <g id="line2d_57">
      <path d="M 404.153599 317.878594 
L 404.153599 22.318125 
" clip-path="url(#p3925f7d2e9)" style="fill: none; stroke: #b0b0b0; stroke-opacity: 0.15; stroke-width: 0.4; stroke-linecap: square"/>
     </g>
     <g id="line2d_58">
      <g>
       <use xlink:href="#m72a71ed72a" x="404.153599" y="317.878594" style="stroke: #000000; stroke-width: 0.6"/>
      </g>
     </g>
    </g>
    <g id="xtick_30">
     <g id="line2d_59">
      <path d="M 412.209124 317.878594 
L 412.209124 22.318125 
" clip-path="url(#p3925f7d2e9)" style="fill: none; stroke: #b0b0b0; stroke-opacity: 0.15; stroke-width: 0.4; stroke-linecap: square"/>
     </g>
     <g id="line2d_60">
      <g>
       <use xlink:href="#m72a71ed72a" x="412.209124" y="317.878594" style="stroke: #000000; stroke-width: 0.6"/>
      </g>
     </g>
    </g>
    <g id="xtick_31">
     <g id="line2d_61">
      <path d="M 419.187136 317.878594 
L 419.187136 22.318125 
" clip-path="url(#p3925f7d2e9)" style="fill: none; stroke: #b0b0b0; stroke-opacity: 0.15; stroke-width: 0.4; stroke-linecap: square"/>
     </g>
     <g id="line2d_62">
      <g>
       <use xlink:href="#m72a71ed72a" x="419.187136" y="317.878594" style="stroke: #000000; stroke-width: 0.6"/>
      </g>
     </g>
    </g>
    <g id="xtick_32">
     <g id="line2d_63">
      <path d="M 425.34218 317.878594 
L 425.34218 22.318125 
" clip-path="url(#p3925f7d2e9)" style="fill: none; stroke: #b0b0b0; stroke-opacity: 0.15; stroke-width: 0.4; stroke-linecap: square"/>
     </g>
     <g id="line2d_64">
      <g>
       <use xlink:href="#m72a71ed72a" x="425.34218" y="317.878594" style="stroke: #000000; stroke-width: 0.6"/>
      </g>
     </g>
    </g>
    <g id="xtick_33">
     <g id="line2d_65">
      <path d="M 467.070172 317.878594 
L 467.070172 22.318125 
" clip-path="url(#p3925f7d2e9)" style="fill: none; stroke: #b0b0b0; stroke-opacity: 0.15; stroke-width: 0.4; stroke-linecap: square"/>
     </g>
     <g id="line2d_66">
      <g>
       <use xlink:href="#m72a71ed72a" x="467.070172" y="317.878594" style="stroke: #000000; stroke-width: 0.6"/>
      </g>
     </g>
    </g>
    <g id="xtick_34">
     <g id="line2d_67">
      <path d="M 488.258753 317.878594 
L 488.258753 22.318125 
" clip-path="url(#p3925f7d2e9)" style="fill: none; stroke: #b0b0b0; stroke-opacity: 0.15; stroke-width: 0.4; stroke-linecap: square"/>
     </g>
     <g id="line2d_68">
      <g>
       <use xlink:href="#m72a71ed72a" x="488.258753" y="317.878594" style="stroke: #000000; stroke-width: 0.6"/>
      </g>
     </g>
    </g>
    <g id="xtick_35">
     <g id="line2d_69">
      <path d="M 503.292291 317.878594 
L 503.292291 22.318125 
" clip-path="url(#p3925f7d2e9)" style="fill: none; stroke: #b0b0b0; stroke-opacity: 0.15; stroke-width: 0.4; stroke-linecap: square"/>
     </g>
     <g id="line2d_70">
      <g>
       <use xlink:href="#m72a71ed72a" x="503.292291" y="317.878594" style="stroke: #000000; stroke-width: 0.6"/>
      </g>
     </g>
    </g>
    <g id="xtick_36">
     <g id="line2d_71">
      <path d="M 514.953208 317.878594 
L 514.953208 22.318125 
" clip-path="url(#p3925f7d2e9)" style="fill: none; stroke: #b0b0b0; stroke-opacity: 0.15; stroke-width: 0.4; stroke-linecap: square"/>
     </g>
     <g id="line2d_72">
      <g>
       <use xlink:href="#m72a71ed72a" x="514.953208" y="317.878594" style="stroke: #000000; stroke-width: 0.6"/>
      </g>
     </g>
    </g>
    <g id="xtick_37">
     <g id="line2d_73">
      <path d="M 524.480872 317.878594 
L 524.480872 22.318125 
" clip-path="url(#p3925f7d2e9)" style="fill: none; stroke: #b0b0b0; stroke-opacity: 0.15; stroke-width: 0.4; stroke-linecap: square"/>
     </g>
     <g id="line2d_74">
      <g>
       <use xlink:href="#m72a71ed72a" x="524.480872" y="317.878594" style="stroke: #000000; stroke-width: 0.6"/>
      </g>
     </g>
    </g>
    <g id="xtick_38">
     <g id="line2d_75">
      <path d="M 532.536396 317.878594 
L 532.536396 22.318125 
" clip-path="url(#p3925f7d2e9)" style="fill: none; stroke: #b0b0b0; stroke-opacity: 0.15; stroke-width: 0.4; stroke-linecap: square"/>
     </g>
     <g id="line2d_76">
      <g>
       <use xlink:href="#m72a71ed72a" x="532.536396" y="317.878594" style="stroke: #000000; stroke-width: 0.6"/>
      </g>
     </g>
    </g>
    <g id="xtick_39">
     <g id="line2d_77">
      <path d="M 539.514409 317.878594 
L 539.514409 22.318125 
" clip-path="url(#p3925f7d2e9)" style="fill: none; stroke: #b0b0b0; stroke-opacity: 0.15; stroke-width: 0.4; stroke-linecap: square"/>
     </g>
     <g id="line2d_78">
      <g>
       <use xlink:href="#m72a71ed72a" x="539.514409" y="317.878594" style="stroke: #000000; stroke-width: 0.6"/>
      </g>
     </g>
    </g>
    <g id="xtick_40">
     <g id="line2d_79">
      <path d="M 545.669453 317.878594 
L 545.669453 22.318125 
" clip-path="url(#p3925f7d2e9)" style="fill: none; stroke: #b0b0b0; stroke-opacity: 0.15; stroke-width: 0.4; stroke-linecap: square"/>
     </g>
     <g id="line2d_80">
      <g>
       <use xlink:href="#m72a71ed72a" x="545.669453" y="317.878594" style="stroke: #000000; stroke-width: 0.6"/>
      </g>
     </g>
    </g>
    <g id="text_6">
     <!-- Geometric scale -->
     <g transform="translate(269.937187 348.279375) scale(0.1 -0.1)">
      <defs>
       <path id="DejaVuSans-2a" d="M 3809 666 
L 3809 1919 
L 2778 1919 
L 2778 2438 
L 4434 2438 
L 4434 434 
Q 4069 175 3628 42 
Q 3188 -91 2688 -91 
Q 1594 -91 976 548 
Q 359 1188 359 2328 
Q 359 3472 976 4111 
Q 1594 4750 2688 4750 
Q 3144 4750 3555 4637 
Q 3966 4525 4313 4306 
L 4313 3634 
Q 3963 3931 3569 4081 
Q 3175 4231 2741 4231 
Q 1884 4231 1454 3753 
Q 1025 3275 1025 2328 
Q 1025 1384 1454 906 
Q 1884 428 2741 428 
Q 3075 428 3337 486 
Q 3600 544 3809 666 
z
" transform="scale(0.015625)"/>
       <path id="DejaVuSans-48" d="M 3597 1894 
L 3597 1613 
L 953 1613 
Q 991 1019 1311 708 
Q 1631 397 2203 397 
Q 2534 397 2845 478 
Q 3156 559 3463 722 
L 3463 178 
Q 3153 47 2828 -22 
Q 2503 -91 2169 -91 
Q 1331 -91 842 396 
Q 353 884 353 1716 
Q 353 2575 817 3079 
Q 1281 3584 2069 3584 
Q 2775 3584 3186 3129 
Q 3597 2675 3597 1894 
z
M 3022 2063 
Q 3016 2534 2758 2815 
Q 2500 3097 2075 3097 
Q 1594 3097 1305 2825 
Q 1016 2553 972 2059 
L 3022 2063 
z
" transform="scale(0.015625)"/>
       <path id="DejaVuSans-52" d="M 1959 3097 
Q 1497 3097 1228 2736 
Q 959 2375 959 1747 
Q 959 1119 1226 758 
Q 1494 397 1959 397 
Q 2419 397 2687 759 
Q 2956 1122 2956 1747 
Q 2956 2369 2687 2733 
Q 2419 3097 1959 3097 
z
M 1959 3584 
Q 2709 3584 3137 3096 
Q 3566 2609 3566 1747 
Q 3566 888 3137 398 
Q 2709 -91 1959 -91 
Q 1206 -91 779 398 
Q 353 888 353 1747 
Q 353 2609 779 3096 
Q 1206 3584 1959 3584 
z
" transform="scale(0.015625)"/>
       <path id="DejaVuSans-50" d="M 3328 2828 
Q 3544 3216 3844 3400 
Q 4144 3584 4550 3584 
Q 5097 3584 5394 3201 
Q 5691 2819 5691 2113 
L 5691 0 
L 5113 0 
L 5113 2094 
Q 5113 2597 4934 2840 
Q 4756 3084 4391 3084 
Q 3944 3084 3684 2787 
Q 3425 2491 3425 1978 
L 3425 0 
L 2847 0 
L 2847 2094 
Q 2847 2600 2669 2842 
Q 2491 3084 2119 3084 
Q 1678 3084 1418 2786 
Q 1159 2488 1159 1978 
L 1159 0 
L 581 0 
L 581 3500 
L 1159 3500 
L 1159 2956 
Q 1356 3278 1631 3431 
Q 1906 3584 2284 3584 
Q 2666 3584 2933 3390 
Q 3200 3197 3328 2828 
z
" transform="scale(0.015625)"/>
       <path id="DejaVuSans-57" d="M 1172 4494 
L 1172 3500 
L 2356 3500 
L 2356 3053 
L 1172 3053 
L 1172 1153 
Q 1172 725 1289 603 
Q 1406 481 1766 481 
L 2356 481 
L 2356 0 
L 1766 0 
Q 1100 0 847 248 
Q 594 497 594 1153 
L 594 3053 
L 172 3053 
L 172 3500 
L 594 3500 
L 594 4494 
L 1172 4494 
z
" transform="scale(0.015625)"/>
       <path id="DejaVuSans-55" d="M 2631 2963 
Q 2534 3019 2420 3045 
Q 2306 3072 2169 3072 
Q 1681 3072 1420 2755 
Q 1159 2438 1159 1844 
L 1159 0 
L 581 0 
L 581 3500 
L 1159 3500 
L 1159 2956 
Q 1341 3275 1631 3429 
Q 1922 3584 2338 3584 
Q 2397 3584 2469 3576 
Q 2541 3569 2628 3553 
L 2631 2963 
z
" transform="scale(0.015625)"/>
       <path id="DejaVuSans-4c" d="M 603 3500 
L 1178 3500 
L 1178 0 
L 603 0 
L 603 3500 
z
M 603 4863 
L 1178 4863 
L 1178 4134 
L 603 4134 
L 603 4863 
z
" transform="scale(0.015625)"/>
       <path id="DejaVuSans-46" d="M 3122 3366 
L 3122 2828 
Q 2878 2963 2633 3030 
Q 2388 3097 2138 3097 
Q 1578 3097 1268 2742 
Q 959 2388 959 1747 
Q 959 1106 1268 751 
Q 1578 397 2138 397 
Q 2388 397 2633 464 
Q 2878 531 3122 666 
L 3122 134 
Q 2881 22 2623 -34 
Q 2366 -91 2075 -91 
Q 1284 -91 818 406 
Q 353 903 353 1747 
Q 353 2603 823 3093 
Q 1294 3584 2113 3584 
Q 2378 3584 2631 3529 
Q 2884 3475 3122 3366 
z
" transform="scale(0.015625)"/>
       <path id="DejaVuSans-3" transform="scale(0.015625)"/>
       <path id="DejaVuSans-56" d="M 2834 3397 
L 2834 2853 
Q 2591 2978 2328 3040 
Q 2066 3103 1784 3103 
Q 1356 3103 1142 2972 
Q 928 2841 928 2578 
Q 928 2378 1081 2264 
Q 1234 2150 1697 2047 
L 1894 2003 
Q 2506 1872 2764 1633 
Q 3022 1394 3022 966 
Q 3022 478 2636 193 
Q 2250 -91 1575 -91 
Q 1294 -91 989 -36 
Q 684 19 347 128 
L 347 722 
Q 666 556 975 473 
Q 1284 391 1588 391 
Q 1994 391 2212 530 
Q 2431 669 2431 922 
Q 2431 1156 2273 1281 
Q 2116 1406 1581 1522 
L 1381 1569 
Q 847 1681 609 1914 
Q 372 2147 372 2553 
Q 372 3047 722 3315 
Q 1072 3584 1716 3584 
Q 2034 3584 2315 3537 
Q 2597 3491 2834 3397 
z
" transform="scale(0.015625)"/>
       <path id="DejaVuSans-44" d="M 2194 1759 
Q 1497 1759 1228 1600 
Q 959 1441 959 1056 
Q 959 750 1161 570 
Q 1363 391 1709 391 
Q 2188 391 2477 730 
Q 2766 1069 2766 1631 
L 2766 1759 
L 2194 1759 
z
M 3341 1997 
L 3341 0 
L 2766 0 
L 2766 531 
Q 2569 213 2275 61 
Q 1981 -91 1556 -91 
Q 1019 -91 701 211 
Q 384 513 384 1019 
Q 384 1609 779 1909 
Q 1175 2209 1959 2209 
L 2766 2209 
L 2766 2266 
Q 2766 2663 2505 2880 
Q 2244 3097 1772 3097 
Q 1472 3097 1187 3025 
Q 903 2953 641 2809 
L 641 3341 
Q 956 3463 1253 3523 
Q 1550 3584 1831 3584 
Q 2591 3584 2966 3190 
Q 3341 2797 3341 1997 
z
" transform="scale(0.015625)"/>
       <path id="DejaVuSans-4f" d="M 603 4863 
L 1178 4863 
L 1178 0 
L 603 0 
L 603 4863 
z
" transform="scale(0.015625)"/>
      </defs>
      <use xlink:href="#DejaVuSans-2a"/>
      <use xlink:href="#DejaVuSans-48" transform="translate(77.484375 0)"/>
      <use xlink:href="#DejaVuSans-52" transform="translate(139.015625 0)"/>
      <use xlink:href="#DejaVuSans-50" transform="translate(200.203125 0)"/>
      <use xlink:href="#DejaVuSans-48" transform="translate(297.609375 0)"/>
      <use xlink:href="#DejaVuSans-57" transform="translate(359.140625 0)"/>
      <use xlink:href="#DejaVuSans-55" transform="translate(398.34375 0)"/>
      <use xlink:href="#DejaVuSans-4c" transform="translate(439.453125 0)"/>
      <use xlink:href="#DejaVuSans-46" transform="translate(467.234375 0)"/>
      <use xlink:href="#DejaVuSans-3" transform="translate(522.21875 0)"/>
      <use xlink:href="#DejaVuSans-56" transform="translate(554 0)"/>
      <use xlink:href="#DejaVuSans-46" transform="translate(606.09375 0)"/>
      <use xlink:href="#DejaVuSans-44" transform="translate(661.078125 0)"/>
      <use xlink:href="#DejaVuSans-4f" transform="translate(722.359375 0)"/>
      <use xlink:href="#DejaVuSans-48" transform="translate(750.140625 0)"/>
     </g>
    </g>
   </g>
   <g id="matplotlib.axis_2">
    <g id="ytick_1">
     <g id="line2d_81">
      <path d="M 45.800781 183.503054 
L 575.240781 183.503054 
" clip-path="url(#p3925f7d2e9)" style="fill: none; stroke: #b0b0b0; stroke-opacity: 0.35; stroke-width: 0.7; stroke-linecap: square"/>
     </g>
     <g id="line2d_82">
      <defs>
       <path id="m2bf711aeb4" d="M 0 0 
L -3.5 0 
" style="stroke: #000000; stroke-width: 0.8"/>
      </defs>
      <g>
       <use xlink:href="#m2bf711aeb4" x="45.800781" y="183.503054" style="stroke: #000000; stroke-width: 0.8"/>
      </g>
     </g>
     <g id="text_7">
      <!-- $\mathdefault{10^{8}}$ -->
      <g transform="translate(21.200781 188.203054) scale(0.1 -0.1)">
       <defs>
        <path id="DejaVuSans-1b" d="M 2034 2216 
Q 1584 2216 1326 1975 
Q 1069 1734 1069 1313 
Q 1069 891 1326 650 
Q 1584 409 2034 409 
Q 2484 409 2743 651 
Q 3003 894 3003 1313 
Q 3003 1734 2745 1975 
Q 2488 2216 2034 2216 
z
M 1403 2484 
Q 997 2584 770 2862 
Q 544 3141 544 3541 
Q 544 4100 942 4425 
Q 1341 4750 2034 4750 
Q 2731 4750 3128 4425 
Q 3525 4100 3525 3541 
Q 3525 3141 3298 2862 
Q 3072 2584 2669 2484 
Q 3125 2378 3379 2068 
Q 3634 1759 3634 1313 
Q 3634 634 3220 271 
Q 2806 -91 2034 -91 
Q 1263 -91 848 271 
Q 434 634 434 1313 
Q 434 1759 690 2068 
Q 947 2378 1403 2484 
z
M 1172 3481 
Q 1172 3119 1398 2916 
Q 1625 2713 2034 2713 
Q 2441 2713 2670 2916 
Q 2900 3119 2900 3481 
Q 2900 3844 2670 4047 
Q 2441 4250 2034 4250 
Q 1625 4250 1398 4047 
Q 1172 3844 1172 3481 
z
" transform="scale(0.015625)"/>
       </defs>
       <use xlink:href="#DejaVuSans-14" transform="translate(0 0.746875)"/>
       <use xlink:href="#DejaVuSans-13" transform="translate(63.623047 0.746875)"/>
       <use xlink:href="#DejaVuSans-1b" transform="translate(128.203125 42.046875) scale(0.7)"/>
      </g>
     </g>
    </g>
    <g id="ytick_2">
     <g id="line2d_83">
      <path d="M 45.800781 24.868522 
L 575.240781 24.868522 
" clip-path="url(#p3925f7d2e9)" style="fill: none; stroke: #b0b0b0; stroke-opacity: 0.35; stroke-width: 0.7; stroke-linecap: square"/>
     </g>
     <g id="line2d_84">
      <g>
       <use xlink:href="#m2bf711aeb4" x="45.800781" y="24.868522" style="stroke: #000000; stroke-width: 0.8"/>
      </g>
     </g>
     <g id="text_8">
      <!-- $\mathdefault{10^{9}}$ -->
      <g transform="translate(21.200781 29.568522) scale(0.1 -0.1)">
       <defs>
        <path id="DejaVuSans-1c" d="M 703 97 
L 703 672 
Q 941 559 1184 500 
Q 1428 441 1663 441 
Q 2288 441 2617 861 
Q 2947 1281 2994 2138 
Q 2813 1869 2534 1725 
Q 2256 1581 1919 1581 
Q 1219 1581 811 2004 
Q 403 2428 403 3163 
Q 403 3881 828 4315 
Q 1253 4750 1959 4750 
Q 2769 4750 3195 4129 
Q 3622 3509 3622 2328 
Q 3622 1225 3098 567 
Q 2575 -91 1691 -91 
Q 1453 -91 1209 -44 
Q 966 3 703 97 
z
M 1959 2075 
Q 2384 2075 2632 2365 
Q 2881 2656 2881 3163 
Q 2881 3666 2632 3958 
Q 2384 4250 1959 4250 
Q 1534 4250 1286 3958 
Q 1038 3666 1038 3163 
Q 1038 2656 1286 2365 
Q 1534 2075 1959 2075 
z
" transform="scale(0.015625)"/>
       </defs>
       <use xlink:href="#DejaVuSans-14" transform="translate(0 0.746875)"/>
       <use xlink:href="#DejaVuSans-13" transform="translate(63.623047 0.746875)"/>
       <use xlink:href="#DejaVuSans-1c" transform="translate(128.203125 42.046875) scale(0.7)"/>
      </g>
     </g>
    </g>
    <g id="ytick_3">
     <g id="line2d_85">
      <path d="M 45.800781 294.383834 
L 575.240781 294.383834 
" clip-path="url(#p3925f7d2e9)" style="fill: none; stroke: #b0b0b0; stroke-opacity: 0.15; stroke-width: 0.4; stroke-linecap: square"/>
     </g>
     <g id="line2d_86">
      <defs>
       <path id="m4b2b927d60" d="M 0 0 
L -2 0 
" style="stroke: #000000; stroke-width: 0.6"/>
      </defs>
      <g>
       <use xlink:href="#m4b2b927d60" x="45.800781" y="294.383834" style="stroke: #000000; stroke-width: 0.6"/>
      </g>
     </g>
    </g>
    <g id="ytick_4">
     <g id="line2d_87">
      <path d="M 45.800781 266.449679 
L 575.240781 266.449679 
" clip-path="url(#p3925f7d2e9)" style="fill: none; stroke: #b0b0b0; stroke-opacity: 0.15; stroke-width: 0.4; stroke-linecap: square"/>
     </g>
     <g id="line2d_88">
      <g>
       <use xlink:href="#m4b2b927d60" x="45.800781" y="266.449679" style="stroke: #000000; stroke-width: 0.6"/>
      </g>
     </g>
    </g>
    <g id="ytick_5">
     <g id="line2d_89">
      <path d="M 45.800781 246.630081 
L 575.240781 246.630081 
" clip-path="url(#p3925f7d2e9)" style="fill: none; stroke: #b0b0b0; stroke-opacity: 0.15; stroke-width: 0.4; stroke-linecap: square"/>
     </g>
     <g id="line2d_90">
      <g>
       <use xlink:href="#m4b2b927d60" x="45.800781" y="246.630081" style="stroke: #000000; stroke-width: 0.6"/>
      </g>
     </g>
    </g>
    <g id="ytick_6">
     <g id="line2d_91">
      <path d="M 45.800781 231.256806 
L 575.240781 231.256806 
" clip-path="url(#p3925f7d2e9)" style="fill: none; stroke: #b0b0b0; stroke-opacity: 0.15; stroke-width: 0.4; stroke-linecap: square"/>
     </g>
     <g id="line2d_92">
      <g>
       <use xlink:href="#m4b2b927d60" x="45.800781" y="231.256806" style="stroke: #000000; stroke-width: 0.6"/>
      </g>
     </g>
    </g>
    <g id="ytick_7">
     <g id="line2d_93">
      <path d="M 45.800781 218.695927 
L 575.240781 218.695927 
" clip-path="url(#p3925f7d2e9)" style="fill: none; stroke: #b0b0b0; stroke-opacity: 0.15; stroke-width: 0.4; stroke-linecap: square"/>
     </g>
     <g id="line2d_94">
      <g>
       <use xlink:href="#m4b2b927d60" x="45.800781" y="218.695927" style="stroke: #000000; stroke-width: 0.6"/>
      </g>
     </g>
    </g>
    <g id="ytick_8">
     <g id="line2d_95">
      <path d="M 45.800781 208.075854 
L 575.240781 208.075854 
" clip-path="url(#p3925f7d2e9)" style="fill: none; stroke: #b0b0b0; stroke-opacity: 0.15; stroke-width: 0.4; stroke-linecap: square"/>
     </g>
     <g id="line2d_96">
      <g>
       <use xlink:href="#m4b2b927d60" x="45.800781" y="208.075854" style="stroke: #000000; stroke-width: 0.6"/>
      </g>
     </g>
    </g>
    <g id="ytick_9">
     <g id="line2d_97">
      <path d="M 45.800781 198.876328 
L 575.240781 198.876328 
" clip-path="url(#p3925f7d2e9)" style="fill: none; stroke: #b0b0b0; stroke-opacity: 0.15; stroke-width: 0.4; stroke-linecap: square"/>
     </g>
     <g id="line2d_98">
      <g>
       <use xlink:href="#m4b2b927d60" x="45.800781" y="198.876328" style="stroke: #000000; stroke-width: 0.6"/>
      </g>
     </g>
    </g>
    <g id="ytick_10">
     <g id="line2d_99">
      <path d="M 45.800781 190.761772 
L 575.240781 190.761772 
" clip-path="url(#p3925f7d2e9)" style="fill: none; stroke: #b0b0b0; stroke-opacity: 0.15; stroke-width: 0.4; stroke-linecap: square"/>
     </g>
     <g id="line2d_100">
      <g>
       <use xlink:href="#m4b2b927d60" x="45.800781" y="190.761772" style="stroke: #000000; stroke-width: 0.6"/>
      </g>
     </g>
    </g>
    <g id="ytick_11">
     <g id="line2d_101">
      <path d="M 45.800781 135.749301 
L 575.240781 135.749301 
" clip-path="url(#p3925f7d2e9)" style="fill: none; stroke: #b0b0b0; stroke-opacity: 0.15; stroke-width: 0.4; stroke-linecap: square"/>
     </g>
     <g id="line2d_102">
      <g>
       <use xlink:href="#m4b2b927d60" x="45.800781" y="135.749301" style="stroke: #000000; stroke-width: 0.6"/>
      </g>
     </g>
    </g>
    <g id="ytick_12">
     <g id="line2d_103">
      <path d="M 45.800781 107.815147 
L 575.240781 107.815147 
" clip-path="url(#p3925f7d2e9)" style="fill: none; stroke: #b0b0b0; stroke-opacity: 0.15; stroke-width: 0.4; stroke-linecap: square"/>
     </g>
     <g id="line2d_104">
      <g>
       <use xlink:href="#m4b2b927d60" x="45.800781" y="107.815147" style="stroke: #000000; stroke-width: 0.6"/>
      </g>
     </g>
    </g>
    <g id="ytick_13">
     <g id="line2d_105">
      <path d="M 45.800781 87.995549 
L 575.240781 87.995549 
" clip-path="url(#p3925f7d2e9)" style="fill: none; stroke: #b0b0b0; stroke-opacity: 0.15; stroke-width: 0.4; stroke-linecap: square"/>
     </g>
     <g id="line2d_106">
      <g>
       <use xlink:href="#m4b2b927d60" x="45.800781" y="87.995549" style="stroke: #000000; stroke-width: 0.6"/>
      </g>
     </g>
    </g>
    <g id="ytick_14">
     <g id="line2d_107">
      <path d="M 45.800781 72.622274 
L 575.240781 72.622274 
" clip-path="url(#p3925f7d2e9)" style="fill: none; stroke: #b0b0b0; stroke-opacity: 0.15; stroke-width: 0.4; stroke-linecap: square"/>
     </g>
     <g id="line2d_108">
      <g>
       <use xlink:href="#m4b2b927d60" x="45.800781" y="72.622274" style="stroke: #000000; stroke-width: 0.6"/>
      </g>
     </g>
    </g>
    <g id="ytick_15">
     <g id="line2d_109">
      <path d="M 45.800781 60.061394 
L 575.240781 60.061394 
" clip-path="url(#p3925f7d2e9)" style="fill: none; stroke: #b0b0b0; stroke-opacity: 0.15; stroke-width: 0.4; stroke-linecap: square"/>
     </g>
     <g id="line2d_110">
      <g>
       <use xlink:href="#m4b2b927d60" x="45.800781" y="60.061394" style="stroke: #000000; stroke-width: 0.6"/>
      </g>
     </g>
    </g>
    <g id="ytick_16">
     <g id="line2d_111">
      <path d="M 45.800781 49.441322 
L 575.240781 49.441322 
" clip-path="url(#p3925f7d2e9)" style="fill: none; stroke: #b0b0b0; stroke-opacity: 0.15; stroke-width: 0.4; stroke-linecap: square"/>
     </g>
     <g id="line2d_112">
      <g>
       <use xlink:href="#m4b2b927d60" x="45.800781" y="49.441322" style="stroke: #000000; stroke-width: 0.6"/>
      </g>
     </g>
    </g>
    <g id="ytick_17">
     <g id="line2d_113">
      <path d="M 45.800781 40.241796 
L 575.240781 40.241796 
" clip-path="url(#p3925f7d2e9)" style="fill: none; stroke: #b0b0b0; stroke-opacity: 0.15; stroke-width: 0.4; stroke-linecap: square"/>
     </g>
     <g id="line2d_114">
      <g>
       <use xlink:href="#m4b2b927d60" x="45.800781" y="40.241796" style="stroke: #000000; stroke-width: 0.6"/>
      </g>
     </g>
    </g>
    <g id="ytick_18">
     <g id="line2d_115">
      <path d="M 45.800781 32.12724 
L 575.240781 32.12724 
" clip-path="url(#p3925f7d2e9)" style="fill: none; stroke: #b0b0b0; stroke-opacity: 0.15; stroke-width: 0.4; stroke-linecap: square"/>
     </g>
     <g id="line2d_116">
      <g>
       <use xlink:href="#m4b2b927d60" x="45.800781" y="32.12724" style="stroke: #000000; stroke-width: 0.6"/>
      </g>
     </g>
    </g>
    <g id="text_9">
     <!-- Estimated condition number (log scale) -->
     <g transform="translate(14.798438 268.753047) rotate(-90) scale(0.1 -0.1)">
      <defs>
       <path id="DejaVuSans-28" d="M 628 4666 
L 3578 4666 
L 3578 4134 
L 1259 4134 
L 1259 2753 
L 3481 2753 
L 3481 2222 
L 1259 2222 
L 1259 531 
L 3634 531 
L 3634 0 
L 628 0 
L 628 4666 
z
" transform="scale(0.015625)"/>
       <path id="DejaVuSans-47" d="M 2906 2969 
L 2906 4863 
L 3481 4863 
L 3481 0 
L 2906 0 
L 2906 525 
Q 2725 213 2448 61 
Q 2172 -91 1784 -91 
Q 1150 -91 751 415 
Q 353 922 353 1747 
Q 353 2572 751 3078 
Q 1150 3584 1784 3584 
Q 2172 3584 2448 3432 
Q 2725 3281 2906 2969 
z
M 947 1747 
Q 947 1113 1208 752 
Q 1469 391 1925 391 
Q 2381 391 2643 752 
Q 2906 1113 2906 1747 
Q 2906 2381 2643 2742 
Q 2381 3103 1925 3103 
Q 1469 3103 1208 2742 
Q 947 2381 947 1747 
z
" transform="scale(0.015625)"/>
       <path id="DejaVuSans-51" d="M 3513 2113 
L 3513 0 
L 2938 0 
L 2938 2094 
Q 2938 2591 2744 2837 
Q 2550 3084 2163 3084 
Q 1697 3084 1428 2787 
Q 1159 2491 1159 1978 
L 1159 0 
L 581 0 
L 581 3500 
L 1159 3500 
L 1159 2956 
Q 1366 3272 1645 3428 
Q 1925 3584 2291 3584 
Q 2894 3584 3203 3211 
Q 3513 2838 3513 2113 
z
" transform="scale(0.015625)"/>
       <path id="DejaVuSans-58" d="M 544 1381 
L 544 3500 
L 1119 3500 
L 1119 1403 
Q 1119 906 1312 657 
Q 1506 409 1894 409 
Q 2359 409 2629 706 
Q 2900 1003 2900 1516 
L 2900 3500 
L 3475 3500 
L 3475 0 
L 2900 0 
L 2900 538 
Q 2691 219 2414 64 
Q 2138 -91 1772 -91 
Q 1169 -91 856 284 
Q 544 659 544 1381 
z
M 1991 3584 
L 1991 3584 
z
" transform="scale(0.015625)"/>
       <path id="DejaVuSans-45" d="M 3116 1747 
Q 3116 2381 2855 2742 
Q 2594 3103 2138 3103 
Q 1681 3103 1420 2742 
Q 1159 2381 1159 1747 
Q 1159 1113 1420 752 
Q 1681 391 2138 391 
Q 2594 391 2855 752 
Q 3116 1113 3116 1747 
z
M 1159 2969 
Q 1341 3281 1617 3432 
Q 1894 3584 2278 3584 
Q 2916 3584 3314 3078 
Q 3713 2572 3713 1747 
Q 3713 922 3314 415 
Q 2916 -91 2278 -91 
Q 1894 -91 1617 61 
Q 1341 213 1159 525 
L 1159 0 
L 581 0 
L 581 4863 
L 1159 4863 
L 1159 2969 
z
" transform="scale(0.015625)"/>
       <path id="DejaVuSans-b" d="M 1984 4856 
Q 1566 4138 1362 3434 
Q 1159 2731 1159 2009 
Q 1159 1288 1364 580 
Q 1569 -128 1984 -844 
L 1484 -844 
Q 1016 -109 783 600 
Q 550 1309 550 2009 
Q 550 2706 781 3412 
Q 1013 4119 1484 4856 
L 1984 4856 
z
" transform="scale(0.015625)"/>
       <path id="DejaVuSans-4a" d="M 2906 1791 
Q 2906 2416 2648 2759 
Q 2391 3103 1925 3103 
Q 1463 3103 1205 2759 
Q 947 2416 947 1791 
Q 947 1169 1205 825 
Q 1463 481 1925 481 
Q 2391 481 2648 825 
Q 2906 1169 2906 1791 
z
M 3481 434 
Q 3481 -459 3084 -895 
Q 2688 -1331 1869 -1331 
Q 1566 -1331 1297 -1286 
Q 1028 -1241 775 -1147 
L 775 -588 
Q 1028 -725 1275 -790 
Q 1522 -856 1778 -856 
Q 2344 -856 2625 -561 
Q 2906 -266 2906 331 
L 2906 616 
Q 2728 306 2450 153 
Q 2172 0 1784 0 
Q 1141 0 747 490 
Q 353 981 353 1791 
Q 353 2603 747 3093 
Q 1141 3584 1784 3584 
Q 2172 3584 2450 3431 
Q 2728 3278 2906 2969 
L 2906 3500 
L 3481 3500 
L 3481 434 
z
" transform="scale(0.015625)"/>
       <path id="DejaVuSans-c" d="M 513 4856 
L 1013 4856 
Q 1481 4119 1714 3412 
Q 1947 2706 1947 2009 
Q 1947 1309 1714 600 
Q 1481 -109 1013 -844 
L 513 -844 
Q 928 -128 1133 580 
Q 1338 1288 1338 2009 
Q 1338 2731 1133 3434 
Q 928 4138 513 4856 
z
" transform="scale(0.015625)"/>
      </defs>
      <use xlink:href="#DejaVuSans-28"/>
      <use xlink:href="#DejaVuSans-56" transform="translate(63.1875 0)"/>
      <use xlink:href="#DejaVuSans-57" transform="translate(115.28125 0)"/>
      <use xlink:href="#DejaVuSans-4c" transform="translate(154.484375 0)"/>
      <use xlink:href="#DejaVuSans-50" transform="translate(182.265625 0)"/>
      <use xlink:href="#DejaVuSans-44" transform="translate(279.671875 0)"/>
      <use xlink:href="#DejaVuSans-57" transform="translate(340.953125 0)"/>
      <use xlink:href="#DejaVuSans-48" transform="translate(380.15625 0)"/>
      <use xlink:href="#DejaVuSans-47" transform="translate(441.6875 0)"/>
      <use xlink:href="#DejaVuSans-3" transform="translate(505.171875 0)"/>
      <use xlink:href="#DejaVuSans-46" transform="translate(536.953125 0)"/>
      <use xlink:href="#DejaVuSans-52" transform="translate(591.9375 0)"/>
      <use xlink:href="#DejaVuSans-51" transform="translate(653.125 0)"/>
      <use xlink:href="#DejaVuSans-47" transform="translate(716.5 0)"/>
      <use xlink:href="#DejaVuSans-4c" transform="translate(779.984375 0)"/>
      <use xlink:href="#DejaVuSans-57" transform="translate(807.765625 0)"/>
      <use xlink:href="#DejaVuSans-4c" transform="translate(846.96875 0)"/>
      <use xlink:href="#DejaVuSans-52" transform="translate(874.75 0)"/>
      <use xlink:href="#DejaVuSans-51" transform="translate(935.9375 0)"/>
      <use xlink:href="#DejaVuSans-3" transform="translate(999.3125 0)"/>
      <use xlink:href="#DejaVuSans-51" transform="translate(1031.09375 0)"/>
      <use xlink:href="#DejaVuSans-58" transform="translate(1094.46875 0)"/>
      <use xlink:href="#DejaVuSans-50" transform="translate(1157.84375 0)"/>
      <use xlink:href="#DejaVuSans-45" transform="translate(1255.25 0)"/>
      <use xlink:href="#DejaVuSans-48" transform="translate(1318.734375 0)"/>
      <use xlink:href="#DejaVuSans-55" transform="translate(1380.265625 0)"/>
      <use xlink:href="#DejaVuSans-3" transform="translate(1421.375 0)"/>
      <use xlink:href="#DejaVuSans-b" transform="translate(1453.15625 0)"/>
      <use xlink:href="#DejaVuSans-4f" transform="translate(1492.171875 0)"/>
      <use xlink:href="#DejaVuSans-52" transform="translate(1519.953125 0)"/>
      <use xlink:href="#DejaVuSans-4a" transform="translate(1581.140625 0)"/>
      <use xlink:href="#DejaVuSans-3" transform="translate(1644.625 0)"/>
      <use xlink:href="#DejaVuSans-56" transform="translate(1676.40625 0)"/>
      <use xlink:href="#DejaVuSans-46" transform="translate(1728.5 0)"/>
      <use xlink:href="#DejaVuSans-44" transform="translate(1783.484375 0)"/>
      <use xlink:href="#DejaVuSans-4f" transform="translate(1844.765625 0)"/>
      <use xlink:href="#DejaVuSans-48" transform="translate(1872.546875 0)"/>
      <use xlink:href="#DejaVuSans-c" transform="translate(1934.078125 0)"/>
     </g>
    </g>
   </g>
   <g id="line2d_117">
    <path d="M 69.866236 147.977391 
L 127.276935 102.327629 
L 190.193509 111.962374 
L 247.604208 109.77698 
L 310.520781 122.825453 
L 367.931481 69.196487 
L 430.848054 146.52163 
L 488.258753 145.352933 
L 551.175327 107.195168 
" clip-path="url(#p3925f7d2e9)" style="fill: none; stroke: #1f77b4; stroke-width: 2; stroke-linecap: square"/>
    <defs>
     <path id="m2fccbcf1b5" d="M 0 2.75 
C 0.729309 2.75 1.428845 2.460243 1.944544 1.944544 
C 2.460243 1.428845 2.75 0.729309 2.75 0 
C 2.75 -0.729309 2.460243 -1.428845 1.944544 -1.944544 
C 1.428845 -2.460243 0.729309 -2.75 0 -2.75 
C -0.729309 -2.75 -1.428845 -2.460243 -1.944544 -1.944544 
C -2.460243 -1.428845 -2.75 -0.729309 -2.75 0 
C -2.75 0.729309 -2.460243 1.428845 -1.944544 1.944544 
C -1.428845 2.460243 -0.729309 2.75 0 2.75 
z
" style="stroke: #1f77b4"/>
    </defs>
    <g clip-path="url(#p3925f7d2e9)">
     <use xlink:href="#m2fccbcf1b5" x="69.866236" y="147.977391" style="fill: #1f77b4; stroke: #1f77b4"/>
     <use xlink:href="#m2fccbcf1b5" x="127.276935" y="102.327629" style="fill: #1f77b4; stroke: #1f77b4"/>
     <use xlink:href="#m2fccbcf1b5" x="190.193509" y="111.962374" style="fill: #1f77b4; stroke: #1f77b4"/>
     <use xlink:href="#m2fccbcf1b5" x="247.604208" y="109.77698" style="fill: #1f77b4; stroke: #1f77b4"/>
     <use xlink:href="#m2fccbcf1b5" x="310.520781" y="122.825453" style="fill: #1f77b4; stroke: #1f77b4"/>
     <use xlink:href="#m2fccbcf1b5" x="367.931481" y="69.196487" style="fill: #1f77b4; stroke: #1f77b4"/>
     <use xlink:href="#m2fccbcf1b5" x="430.848054" y="146.52163" style="fill: #1f77b4; stroke: #1f77b4"/>
     <use xlink:href="#m2fccbcf1b5" x="488.258753" y="145.352933" style="fill: #1f77b4; stroke: #1f77b4"/>
     <use xlink:href="#m2fccbcf1b5" x="551.175327" y="107.195168" style="fill: #1f77b4; stroke: #1f77b4"/>
    </g>
   </g>
   <g id="line2d_118">
    <path d="M 69.866236 282.812348 
L 127.276935 269.332625 
L 190.193509 295.678571 
L 247.604208 260.530726 
L 310.520781 275.891153 
L 367.931481 276.045863 
L 430.848054 285.335995 
L 488.258753 285.52225 
L 551.175327 277.090927 
" clip-path="url(#p3925f7d2e9)" style="fill: none; stroke: #ff7f0e; stroke-width: 2; stroke-linecap: square"/>
    <defs>
     <path id="m298484ce0e" d="M 0 2.75 
C 0.729309 2.75 1.428845 2.460243 1.944544 1.944544 
C 2.460243 1.428845 2.75 0.729309 2.75 0 
C 2.75 -0.729309 2.460243 -1.428845 1.944544 -1.944544 
C 1.428845 -2.460243 0.729309 -2.75 0 -2.75 
C -0.729309 -2.75 -1.428845 -2.460243 -1.944544 -1.944544 
C -2.460243 -1.428845 -2.75 -0.729309 -2.75 0 
C -2.75 0.729309 -2.460243 1.428845 -1.944544 1.944544 
C -1.428845 2.460243 -0.729309 2.75 0 2.75 
z
" style="stroke: #ff7f0e"/>
    </defs>
    <g clip-path="url(#p3925f7d2e9)">
     <use xlink:href="#m298484ce0e" x="69.866236" y="282.812348" style="fill: #ff7f0e; stroke: #ff7f0e"/>
     <use xlink:href="#m298484ce0e" x="127.276935" y="269.332625" style="fill: #ff7f0e; stroke: #ff7f0e"/>
     <use xlink:href="#m298484ce0e" x="190.193509" y="295.678571" style="fill: #ff7f0e; stroke: #ff7f0e"/>
     <use xlink:href="#m298484ce0e" x="247.604208" y="260.530726" style="fill: #ff7f0e; stroke: #ff7f0e"/>
     <use xlink:href="#m298484ce0e" x="310.520781" y="275.891153" style="fill: #ff7f0e; stroke: #ff7f0e"/>
     <use xlink:href="#m298484ce0e" x="367.931481" y="276.045863" style="fill: #ff7f0e; stroke: #ff7f0e"/>
     <use xlink:href="#m298484ce0e" x="430.848054" y="285.335995" style="fill: #ff7f0e; stroke: #ff7f0e"/>
     <use xlink:href="#m298484ce0e" x="488.258753" y="285.52225" style="fill: #ff7f0e; stroke: #ff7f0e"/>
     <use xlink:href="#m298484ce0e" x="551.175327" y="277.090927" style="fill: #ff7f0e; stroke: #ff7f0e"/>
    </g>
   </g>
   <g id="line2d_119">
    <path d="M 69.866236 205.320289 
L 127.276935 220.971184 
L 190.193509 254.172497 
L 247.604208 220.225724 
L 310.520781 209.529176 
L 367.931481 203.937651 
L 430.848054 228.782994 
L 488.258753 220.299151 
L 551.175327 228.132929 
" clip-path="url(#p3925f7d2e9)" style="fill: none; stroke: #2ca02c; stroke-width: 2; stroke-linecap: square"/>
    <defs>
     <path id="mf28b94590e" d="M 0 2.75 
C 0.729309 2.75 1.428845 2.460243 1.944544 1.944544 
C 2.460243 1.428845 2.75 0.729309 2.75 0 
C 2.75 -0.729309 2.460243 -1.428845 1.944544 -1.944544 
C 1.428845 -2.460243 0.729309 -2.75 0 -2.75 
C -0.729309 -2.75 -1.428845 -2.460243 -1.944544 -1.944544 
C -2.460243 -1.428845 -2.75 -0.729309 -2.75 0 
C -2.75 0.729309 -2.460243 1.428845 -1.944544 1.944544 
C -1.428845 2.460243 -0.729309 2.75 0 2.75 
z
" style="stroke: #2ca02c"/>
    </defs>
    <g clip-path="url(#p3925f7d2e9)">
     <use xlink:href="#mf28b94590e" x="69.866236" y="205.320289" style="fill: #2ca02c; stroke: #2ca02c"/>
     <use xlink:href="#mf28b94590e" x="127.276935" y="220.971184" style="fill: #2ca02c; stroke: #2ca02c"/>
     <use xlink:href="#mf28b94590e" x="190.193509" y="254.172497" style="fill: #2ca02c; stroke: #2ca02c"/>
     <use xlink:href="#mf28b94590e" x="247.604208" y="220.225724" style="fill: #2ca02c; stroke: #2ca02c"/>
     <use xlink:href="#mf28b94590e" x="310.520781" y="209.529176" style="fill: #2ca02c; stroke: #2ca02c"/>
     <use xlink:href="#mf28b94590e" x="367.931481" y="203.937651" style="fill: #2ca02c; stroke: #2ca02c"/>
     <use xlink:href="#mf28b94590e" x="430.848054" y="228.782994" style="fill: #2ca02c; stroke: #2ca02c"/>
     <use xlink:href="#mf28b94590e" x="488.258753" y="220.299151" style="fill: #2ca02c; stroke: #2ca02c"/>
     <use xlink:href="#mf28b94590e" x="551.175327" y="228.132929" style="fill: #2ca02c; stroke: #2ca02c"/>
    </g>
   </g>
   <g id="patch_3">
    <path d="M 45.800781 317.878594 
L 45.800781 22.318125 
" style="fill: none; stroke: #000000; stroke-width: 0.8; stroke-linejoin: miter; stroke-linecap: square"/>
   </g>
   <g id="patch_4">
    <path d="M 575.240781 317.878594 
L 575.240781 22.318125 
" style="fill: none; stroke: #000000; stroke-width: 0.8; stroke-linejoin: miter; stroke-linecap: square"/>
   </g>
   <g id="patch_5">
    <path d="M 45.800781 317.878594 
L 575.240781 317.878594 
" style="fill: none; stroke: #000000; stroke-width: 0.8; stroke-linejoin: miter; stroke-linecap: square"/>
   </g>
   <g id="patch_6">
    <path d="M 45.800781 22.318125 
L 575.240781 22.318125 
" style="fill: none; stroke: #000000; stroke-width: 0.8; stroke-linejoin: miter; stroke-linecap: square"/>
   </g>
   <g id="text_10">
    <!-- Estimated Condition Number versus Geometric Scale -->
    <g transform="translate(150.700469 16.318125) scale(0.12 -0.12)">
     <defs>
      <path id="DejaVuSans-26" d="M 4122 4306 
L 4122 3641 
Q 3803 3938 3442 4084 
Q 3081 4231 2675 4231 
Q 1875 4231 1450 3742 
Q 1025 3253 1025 2328 
Q 1025 1406 1450 917 
Q 1875 428 2675 428 
Q 3081 428 3442 575 
Q 3803 722 4122 1019 
L 4122 359 
Q 3791 134 3420 21 
Q 3050 -91 2638 -91 
Q 1578 -91 968 557 
Q 359 1206 359 2328 
Q 359 3453 968 4101 
Q 1578 4750 2638 4750 
Q 3056 4750 3426 4639 
Q 3797 4528 4122 4306 
z
" transform="scale(0.015625)"/>
      <path id="DejaVuSans-31" d="M 628 4666 
L 1478 4666 
L 3547 763 
L 3547 4666 
L 4159 4666 
L 4159 0 
L 3309 0 
L 1241 3903 
L 1241 0 
L 628 0 
L 628 4666 
z
" transform="scale(0.015625)"/>
      <path id="DejaVuSans-59" d="M 191 3500 
L 800 3500 
L 1894 563 
L 2988 3500 
L 3597 3500 
L 2284 0 
L 1503 0 
L 191 3500 
z
" transform="scale(0.015625)"/>
      <path id="DejaVuSans-36" d="M 3425 4513 
L 3425 3897 
Q 3066 4069 2747 4153 
Q 2428 4238 2131 4238 
Q 1616 4238 1336 4038 
Q 1056 3838 1056 3469 
Q 1056 3159 1242 3001 
Q 1428 2844 1947 2747 
L 2328 2669 
Q 3034 2534 3370 2195 
Q 3706 1856 3706 1288 
Q 3706 609 3251 259 
Q 2797 -91 1919 -91 
Q 1588 -91 1214 -16 
Q 841 59 441 206 
L 441 856 
Q 825 641 1194 531 
Q 1563 422 1919 422 
Q 2459 422 2753 634 
Q 3047 847 3047 1241 
Q 3047 1584 2836 1778 
Q 2625 1972 2144 2069 
L 1759 2144 
Q 1053 2284 737 2584 
Q 422 2884 422 3419 
Q 422 4038 858 4394 
Q 1294 4750 2059 4750 
Q 2388 4750 2728 4690 
Q 3069 4631 3425 4513 
z
" transform="scale(0.015625)"/>
     </defs>
     <use xlink:href="#DejaVuSans-28"/>
     <use xlink:href="#DejaVuSans-56" transform="translate(63.1875 0)"/>
     <use xlink:href="#DejaVuSans-57" transform="translate(115.28125 0)"/>
     <use xlink:href="#DejaVuSans-4c" transform="translate(154.484375 0)"/>
     <use xlink:href="#DejaVuSans-50" transform="translate(182.265625 0)"/>
     <use xlink:href="#DejaVuSans-44" transform="translate(279.671875 0)"/>
     <use xlink:href="#DejaVuSans-57" transform="translate(340.953125 0)"/>
     <use xlink:href="#DejaVuSans-48" transform="translate(380.15625 0)"/>
     <use xlink:href="#DejaVuSans-47" transform="translate(441.6875 0)"/>
     <use xlink:href="#DejaVuSans-3" transform="translate(505.171875 0)"/>
     <use xlink:href="#DejaVuSans-26" transform="translate(536.953125 0)"/>
     <use xlink:href="#DejaVuSans-52" transform="translate(606.78125 0)"/>
     <use xlink:href="#DejaVuSans-51" transform="translate(667.96875 0)"/>
     <use xlink:href="#DejaVuSans-47" transform="translate(731.34375 0)"/>
     <use xlink:href="#DejaVuSans-4c" transform="translate(794.828125 0)"/>
     <use xlink:href="#DejaVuSans-57" transform="translate(822.609375 0)"/>
     <use xlink:href="#DejaVuSans-4c" transform="translate(861.8125 0)"/>
     <use xlink:href="#DejaVuSans-52" transform="translate(889.59375 0)"/>
     <use xlink:href="#DejaVuSans-51" transform="translate(950.78125 0)"/>
     <use xlink:href="#DejaVuSans-3" transform="translate(1014.15625 0)"/>
     <use xlink:href="#DejaVuSans-31" transform="translate(1045.9375 0)"/>
     <use xlink:href="#DejaVuSans-58" transform="translate(1120.75 0)"/>
     <use xlink:href="#DejaVuSans-50" transform="translate(1184.125 0)"/>
     <use xlink:href="#DejaVuSans-45" transform="translate(1281.53125 0)"/>
     <use xlink:href="#DejaVuSans-48" transform="translate(1345.015625 0)"/>
     <use xlink:href="#DejaVuSans-55" transform="translate(1406.546875 0)"/>
     <use xlink:href="#DejaVuSans-3" transform="translate(1447.65625 0)"/>
     <use xlink:href="#DejaVuSans-59" transform="translate(1479.4375 0)"/>
     <use xlink:href="#DejaVuSans-48" transform="translate(1538.625 0)"/>
     <use xlink:href="#DejaVuSans-55" transform="translate(1600.15625 0)"/>
     <use xlink:href="#DejaVuSans-56" transform="translate(1641.265625 0)"/>
     <use xlink:href="#DejaVuSans-58" transform="translate(1693.359375 0)"/>
     <use xlink:href="#DejaVuSans-56" transform="translate(1756.734375 0)"/>
     <use xlink:href="#DejaVuSans-3" transform="translate(1808.828125 0)"/>
     <use xlink:href="#DejaVuSans-2a" transform="translate(1840.609375 0)"/>
     <use xlink:href="#DejaVuSans-48" transform="translate(1918.09375 0)"/>
     <use xlink:href="#DejaVuSans-52" transform="translate(1979.625 0)"/>
     <use xlink:href="#DejaVuSans-50" transform="translate(2040.8125 0)"/>
     <use xlink:href="#DejaVuSans-48" transform="translate(2138.21875 0)"/>
     <use xlink:href="#DejaVuSans-57" transform="translate(2199.75 0)"/>
     <use xlink:href="#DejaVuSans-55" transform="translate(2238.953125 0)"/>
     <use xlink:href="#DejaVuSans-4c" transform="translate(2280.0625 0)"/>
     <use xlink:href="#DejaVuSans-46" transform="translate(2307.84375 0)"/>
     <use xlink:href="#DejaVuSans-3" transform="translate(2362.828125 0)"/>
     <use xlink:href="#DejaVuSans-36" transform="translate(2394.609375 0)"/>
     <use xlink:href="#DejaVuSans-46" transform="translate(2458.09375 0)"/>
     <use xlink:href="#DejaVuSans-44" transform="translate(2513.078125 0)"/>
     <use xlink:href="#DejaVuSans-4f" transform="translate(2574.359375 0)"/>
     <use xlink:href="#DejaVuSans-48" transform="translate(2602.140625 0)"/>
    </g>
   </g>
   <g id="legend_1">
    <g id="patch_7">
     <path d="M 52.800781 90.32125 
L 169.011719 90.32125 
Q 171.011719 90.32125 171.011719 88.32125 
L 171.011719 29.318125 
Q 171.011719 27.318125 169.011719 27.318125 
L 52.800781 27.318125 
Q 50.800781 27.318125 50.800781 29.318125 
L 50.800781 88.32125 
Q 50.800781 90.32125 52.800781 90.32125 
z
" style="fill: #ffffff; opacity: 0.8; stroke: #cccccc; stroke-linejoin: miter"/>
    </g>
    <g id="text_11">
     <!-- Polynomial basis -->
     <g transform="translate(69.295312 38.916562) scale(0.1 -0.1)">
      <defs>
       <path id="DejaVuSans-33" d="M 1259 4147 
L 1259 2394 
L 2053 2394 
Q 2494 2394 2734 2622 
Q 2975 2850 2975 3272 
Q 2975 3691 2734 3919 
Q 2494 4147 2053 4147 
L 1259 4147 
z
M 628 4666 
L 2053 4666 
Q 2838 4666 3239 4311 
Q 3641 3956 3641 3272 
Q 3641 2581 3239 2228 
Q 2838 1875 2053 1875 
L 1259 1875 
L 1259 0 
L 628 0 
L 628 4666 
z
" transform="scale(0.015625)"/>
       <path id="DejaVuSans-5c" d="M 2059 -325 
Q 1816 -950 1584 -1140 
Q 1353 -1331 966 -1331 
L 506 -1331 
L 506 -850 
L 844 -850 
Q 1081 -850 1212 -737 
Q 1344 -625 1503 -206 
L 1606 56 
L 191 3500 
L 800 3500 
L 1894 763 
L 2988 3500 
L 3597 3500 
L 2059 -325 
z
" transform="scale(0.015625)"/>
      </defs>
      <use xlink:href="#DejaVuSans-33"/>
      <use xlink:href="#DejaVuSans-52" transform="translate(56.734375 0)"/>
      <use xlink:href="#DejaVuSans-4f" transform="translate(117.921875 0)"/>
      <use xlink:href="#DejaVuSans-5c" transform="translate(145.703125 0)"/>
      <use xlink:href="#DejaVuSans-51" transform="translate(204.890625 0)"/>
      <use xlink:href="#DejaVuSans-52" transform="translate(268.265625 0)"/>
      <use xlink:href="#DejaVuSans-50" transform="translate(329.453125 0)"/>
      <use xlink:href="#DejaVuSans-4c" transform="translate(426.859375 0)"/>
      <use xlink:href="#DejaVuSans-44" transform="translate(454.640625 0)"/>
      <use xlink:href="#DejaVuSans-4f" transform="translate(515.921875 0)"/>
      <use xlink:href="#DejaVuSans-3" transform="translate(543.703125 0)"/>
      <use xlink:href="#DejaVuSans-45" transform="translate(575.484375 0)"/>
      <use xlink:href="#DejaVuSans-44" transform="translate(638.96875 0)"/>
      <use xlink:href="#DejaVuSans-56" transform="translate(700.25 0)"/>
      <use xlink:href="#DejaVuSans-4c" transform="translate(752.34375 0)"/>
      <use xlink:href="#DejaVuSans-56" transform="translate(780.125 0)"/>
     </g>
    </g>
    <g id="line2d_120">
     <path d="M 54.800781 50.417344 
L 64.800781 50.417344 
L 74.800781 50.417344 
" style="fill: none; stroke: #1f77b4; stroke-width: 2; stroke-linecap: square"/>
     <g>
      <use xlink:href="#m2fccbcf1b5" x="64.800781" y="50.417344" style="fill: #1f77b4; stroke: #1f77b4"/>
     </g>
    </g>
    <g id="text_12">
     <!-- Monomial basis -->
     <g transform="translate(82.800781 53.917344) scale(0.1 -0.1)">
      <defs>
       <path id="DejaVuSans-30" d="M 628 4666 
L 1569 4666 
L 2759 1491 
L 3956 4666 
L 4897 4666 
L 4897 0 
L 4281 0 
L 4281 4097 
L 3078 897 
L 2444 897 
L 1241 4097 
L 1241 0 
L 628 0 
L 628 4666 
z
" transform="scale(0.015625)"/>
      </defs>
      <use xlink:href="#DejaVuSans-30"/>
      <use xlink:href="#DejaVuSans-52" transform="translate(86.28125 0)"/>
      <use xlink:href="#DejaVuSans-51" transform="translate(147.46875 0)"/>
      <use xlink:href="#DejaVuSans-52" transform="translate(210.84375 0)"/>
      <use xlink:href="#DejaVuSans-50" transform="translate(272.03125 0)"/>
      <use xlink:href="#DejaVuSans-4c" transform="translate(369.4375 0)"/>
      <use xlink:href="#DejaVuSans-44" transform="translate(397.21875 0)"/>
      <use xlink:href="#DejaVuSans-4f" transform="translate(458.5 0)"/>
      <use xlink:href="#DejaVuSans-3" transform="translate(486.28125 0)"/>
      <use xlink:href="#DejaVuSans-45" transform="translate(518.0625 0)"/>
      <use xlink:href="#DejaVuSans-44" transform="translate(581.546875 0)"/>
      <use xlink:href="#DejaVuSans-56" transform="translate(642.828125 0)"/>
      <use xlink:href="#DejaVuSans-4c" transform="translate(694.921875 0)"/>
      <use xlink:href="#DejaVuSans-56" transform="translate(722.703125 0)"/>
     </g>
    </g>
    <g id="line2d_121">
     <path d="M 54.800781 65.418125 
L 64.800781 65.418125 
L 74.800781 65.418125 
" style="fill: none; stroke: #ff7f0e; stroke-width: 2; stroke-linecap: square"/>
     <g>
      <use xlink:href="#m298484ce0e" x="64.800781" y="65.418125" style="fill: #ff7f0e; stroke: #ff7f0e"/>
     </g>
    </g>
    <g id="text_13">
     <!-- Legendre basis -->
     <g transform="translate(82.800781 68.918125) scale(0.1 -0.1)">
      <defs>
       <path id="DejaVuSans-2f" d="M 628 4666 
L 1259 4666 
L 1259 531 
L 3531 531 
L 3531 0 
L 628 0 
L 628 4666 
z
" transform="scale(0.015625)"/>
      </defs>
      <use xlink:href="#DejaVuSans-2f"/>
      <use xlink:href="#DejaVuSans-48" transform="translate(53.96875 0)"/>
      <use xlink:href="#DejaVuSans-4a" transform="translate(115.5 0)"/>
      <use xlink:href="#DejaVuSans-48" transform="translate(178.984375 0)"/>
      <use xlink:href="#DejaVuSans-51" transform="translate(240.515625 0)"/>
      <use xlink:href="#DejaVuSans-47" transform="translate(303.890625 0)"/>
      <use xlink:href="#DejaVuSans-55" transform="translate(367.375 0)"/>
      <use xlink:href="#DejaVuSans-48" transform="translate(406.28125 0)"/>
      <use xlink:href="#DejaVuSans-3" transform="translate(467.8125 0)"/>
      <use xlink:href="#DejaVuSans-45" transform="translate(499.59375 0)"/>
      <use xlink:href="#DejaVuSans-44" transform="translate(563.078125 0)"/>
      <use xlink:href="#DejaVuSans-56" transform="translate(624.359375 0)"/>
      <use xlink:href="#DejaVuSans-4c" transform="translate(676.453125 0)"/>
      <use xlink:href="#DejaVuSans-56" transform="translate(704.234375 0)"/>
     </g>
    </g>
    <g id="line2d_122">
     <path d="M 54.800781 80.418906 
L 64.800781 80.418906 
L 74.800781 80.418906 
" style="fill: none; stroke: #2ca02c; stroke-width: 2; stroke-linecap: square"/>
     <g>
      <use xlink:href="#mf28b94590e" x="64.800781" y="80.418906" style="fill: #2ca02c; stroke: #2ca02c"/>
     </g>
    </g>
    <g id="text_14">
     <!-- Chebyshev basis -->
     <g transform="translate(82.800781 83.918906) scale(0.1 -0.1)">
      <defs>
       <path id="DejaVuSans-4b" d="M 3513 2113 
L 3513 0 
L 2938 0 
L 2938 2094 
Q 2938 2591 2744 2837 
Q 2550 3084 2163 3084 
Q 1697 3084 1428 2787 
Q 1159 2491 1159 1978 
L 1159 0 
L 581 0 
L 581 4863 
L 1159 4863 
L 1159 2956 
Q 1366 3272 1645 3428 
Q 1925 3584 2291 3584 
Q 2894 3584 3203 3211 
Q 3513 2838 3513 2113 
z
" transform="scale(0.015625)"/>
      </defs>
      <use xlink:href="#DejaVuSans-26"/>
      <use xlink:href="#DejaVuSans-4b" transform="translate(69.828125 0)"/>
      <use xlink:href="#DejaVuSans-48" transform="translate(133.203125 0)"/>
      <use xlink:href="#DejaVuSans-45" transform="translate(194.734375 0)"/>
      <use xlink:href="#DejaVuSans-5c" transform="translate(258.21875 0)"/>
      <use xlink:href="#DejaVuSans-56" transform="translate(317.40625 0)"/>
      <use xlink:href="#DejaVuSans-4b" transform="translate(369.5 0)"/>
      <use xlink:href="#DejaVuSans-48" transform="translate(432.875 0)"/>
      <use xlink:href="#DejaVuSans-59" transform="translate(494.40625 0)"/>
      <use xlink:href="#DejaVuSans-3" transform="translate(553.59375 0)"/>
      <use xlink:href="#DejaVuSans-45" transform="translate(585.375 0)"/>
      <use xlink:href="#DejaVuSans-44" transform="translate(648.859375 0)"/>
      <use xlink:href="#DejaVuSans-56" transform="translate(710.140625 0)"/>
      <use xlink:href="#DejaVuSans-4c" transform="translate(762.234375 0)"/>
      <use xlink:href="#DejaVuSans-56" transform="translate(790.015625 0)"/>
     </g>
    </g>
   </g>
  </g>
  <g id="text_15">
   <!-- Fixed configuration: degree 10, dimension 2, float64 -->
   <g transform="translate(179.779727 366.886945) scale(0.085 -0.085)">
    <defs>
     <path id="DejaVuSans-29" d="M 628 4666 
L 3309 4666 
L 3309 4134 
L 1259 4134 
L 1259 2759 
L 3109 2759 
L 3109 2228 
L 1259 2228 
L 1259 0 
L 628 0 
L 628 4666 
z
" transform="scale(0.015625)"/>
     <path id="DejaVuSans-5b" d="M 3513 3500 
L 2247 1797 
L 3578 0 
L 2900 0 
L 1881 1375 
L 863 0 
L 184 0 
L 1544 1831 
L 300 3500 
L 978 3500 
L 1906 2253 
L 2834 3500 
L 3513 3500 
z
" transform="scale(0.015625)"/>
     <path id="DejaVuSans-13af" d="M 3431 3500 
L 3431 0 
L 2853 0 
L 2853 3053 
L 1275 3053 
L 1275 0 
L 697 0 
L 697 3053 
L 147 3053 
L 147 3500 
L 697 3500 
L 697 3744 
Q 697 4316 967 4589 
Q 1238 4863 1797 4863 
L 2375 4863 
L 2375 4384 
L 1825 4384 
Q 1516 4384 1395 4259 
Q 1275 4134 1275 3809 
L 1275 3500 
L 3431 3500 
z
M 2853 4856 
L 3431 4856 
L 3431 4128 
L 2853 4128 
L 2853 4856 
z
" transform="scale(0.015625)"/>
     <path id="DejaVuSans-1d" d="M 750 794 
L 1409 794 
L 1409 0 
L 750 0 
L 750 794 
z
M 750 3309 
L 1409 3309 
L 1409 2516 
L 750 2516 
L 750 3309 
z
" transform="scale(0.015625)"/>
     <path id="DejaVuSans-f" d="M 750 794 
L 1409 794 
L 1409 256 
L 897 -744 
L 494 -744 
L 750 256 
L 750 794 
z
" transform="scale(0.015625)"/>
     <path id="DejaVuSans-13b0" d="M 1831 4863 
L 3431 4863 
L 3431 0 
L 2853 0 
L 2853 4384 
L 1825 4384 
Q 1516 4384 1395 4259 
Q 1275 4134 1275 3809 
L 1275 3500 
L 2222 3500 
L 2222 3053 
L 1275 3053 
L 1275 0 
L 697 0 
L 697 3053 
L 147 3053 
L 147 3500 
L 697 3500 
L 697 3744 
Q 697 4328 969 4595 
Q 1241 4863 1831 4863 
z
" transform="scale(0.015625)"/>
     <path id="DejaVuSans-19" d="M 2113 2584 
Q 1688 2584 1439 2293 
Q 1191 2003 1191 1497 
Q 1191 994 1439 701 
Q 1688 409 2113 409 
Q 2538 409 2786 701 
Q 3034 994 3034 1497 
Q 3034 2003 2786 2293 
Q 2538 2584 2113 2584 
z
M 3366 4563 
L 3366 3988 
Q 3128 4100 2886 4159 
Q 2644 4219 2406 4219 
Q 1781 4219 1451 3797 
Q 1122 3375 1075 2522 
Q 1259 2794 1537 2939 
Q 1816 3084 2150 3084 
Q 2853 3084 3261 2657 
Q 3669 2231 3669 1497 
Q 3669 778 3244 343 
Q 2819 -91 2113 -91 
Q 1303 -91 875 529 
Q 447 1150 447 2328 
Q 447 3434 972 4092 
Q 1497 4750 2381 4750 
Q 2619 4750 2861 4703 
Q 3103 4656 3366 4563 
z
" transform="scale(0.015625)"/>
     <path id="DejaVuSans-17" d="M 2419 4116 
L 825 1625 
L 2419 1625 
L 2419 4116 
z
M 2253 4666 
L 3047 4666 
L 3047 1625 
L 3713 1625 
L 3713 1100 
L 3047 1100 
L 3047 0 
L 2419 0 
L 2419 1100 
L 313 1100 
L 313 1709 
L 2253 4666 
z
" transform="scale(0.015625)"/>
    </defs>
    <use xlink:href="#DejaVuSans-29"/>
    <use xlink:href="#DejaVuSans-4c" transform="translate(50.234375 0)"/>
    <use xlink:href="#DejaVuSans-5b" transform="translate(78.015625 0)"/>
    <use xlink:href="#DejaVuSans-48" transform="translate(134.125 0)"/>
    <use xlink:href="#DejaVuSans-47" transform="translate(195.65625 0)"/>
    <use xlink:href="#DejaVuSans-3" transform="translate(259.140625 0)"/>
    <use xlink:href="#DejaVuSans-46" transform="translate(290.921875 0)"/>
    <use xlink:href="#DejaVuSans-52" transform="translate(345.90625 0)"/>
    <use xlink:href="#DejaVuSans-51" transform="translate(407.09375 0)"/>
    <use xlink:href="#DejaVuSans-13af" transform="translate(470.46875 0)"/>
    <use xlink:href="#DejaVuSans-4a" transform="translate(533.453125 0)"/>
    <use xlink:href="#DejaVuSans-58" transform="translate(596.9375 0)"/>
    <use xlink:href="#DejaVuSans-55" transform="translate(660.3125 0)"/>
    <use xlink:href="#DejaVuSans-44" transform="translate(701.421875 0)"/>
    <use xlink:href="#DejaVuSans-57" transform="translate(762.703125 0)"/>
    <use xlink:href="#DejaVuSans-4c" transform="translate(801.90625 0)"/>
    <use xlink:href="#DejaVuSans-52" transform="translate(829.6875 0)"/>
    <use xlink:href="#DejaVuSans-51" transform="translate(890.875 0)"/>
    <use xlink:href="#DejaVuSans-1d" transform="translate(954.25 0)"/>
    <use xlink:href="#DejaVuSans-3" transform="translate(987.9375 0)"/>
    <use xlink:href="#DejaVuSans-47" transform="translate(1019.71875 0)"/>
    <use xlink:href="#DejaVuSans-48" transform="translate(1083.203125 0)"/>
    <use xlink:href="#DejaVuSans-4a" transform="translate(1144.734375 0)"/>
    <use xlink:href="#DejaVuSans-55" transform="translate(1208.21875 0)"/>
    <use xlink:href="#DejaVuSans-48" transform="translate(1247.125 0)"/>
    <use xlink:href="#DejaVuSans-48" transform="translate(1308.65625 0)"/>
    <use xlink:href="#DejaVuSans-3" transform="translate(1370.1875 0)"/>
    <use xlink:href="#DejaVuSans-14" transform="translate(1401.96875 0)"/>
    <use xlink:href="#DejaVuSans-13" transform="translate(1465.59375 0)"/>
    <use xlink:href="#DejaVuSans-f" transform="translate(1529.21875 0)"/>
    <use xlink:href="#DejaVuSans-3" transform="translate(1561 0)"/>
    <use xlink:href="#DejaVuSans-47" transform="translate(1592.78125 0)"/>
    <use xlink:href="#DejaVuSans-4c" transform="translate(1656.265625 0)"/>
    <use xlink:href="#DejaVuSans-50" transform="translate(1684.046875 0)"/>
    <use xlink:href="#DejaVuSans-48" transform="translate(1781.453125 0)"/>
    <use xlink:href="#DejaVuSans-51" transform="translate(1842.984375 0)"/>
    <use xlink:href="#DejaVuSans-56" transform="translate(1906.359375 0)"/>
    <use xlink:href="#DejaVuSans-4c" transform="translate(1958.453125 0)"/>
    <use xlink:href="#DejaVuSans-52" transform="translate(1986.234375 0)"/>
    <use xlink:href="#DejaVuSans-51" transform="translate(2047.421875 0)"/>
    <use xlink:href="#DejaVuSans-3" transform="translate(2110.796875 0)"/>
    <use xlink:href="#DejaVuSans-15" transform="translate(2142.578125 0)"/>
    <use xlink:href="#DejaVuSans-f" transform="translate(2206.203125 0)"/>
    <use xlink:href="#DejaVuSans-3" transform="translate(2237.984375 0)"/>
    <use xlink:href="#DejaVuSans-13b0" transform="translate(2269.765625 0)"/>
    <use xlink:href="#DejaVuSans-52" transform="translate(2332.75 0)"/>
    <use xlink:href="#DejaVuSans-44" transform="translate(2393.9375 0)"/>
    <use xlink:href="#DejaVuSans-57" transform="translate(2455.21875 0)"/>
    <use xlink:href="#DejaVuSans-19" transform="translate(2494.421875 0)"/>
    <use xlink:href="#DejaVuSans-17" transform="translate(2558.046875 0)"/>
   </g>
  </g>
 </g>
 <defs>
  <clipPath id="p3925f7d2e9">
   <rect x="45.800781" y="22.318125" width="529.44" height="295.560469"/>
  </clipPath>
 </defs>
</svg>
