<?xml version="1.0" encoding="utf-8" standalone="no"?>
<!DOCTYPE svg PUBLIC "-//W3C//DTD SVG 1.1//EN"
  "http://www.w3.org/Graphics/SVG/1.1/DTD/svg11.dtd">
<svg xmlns:xlink="http://www.w3.org/1999/xlink" width="565.500781pt" height="383.366125pt" viewBox="0 0 565.500781 383.366125" xmlns="http://www.w3.org/2000/svg" version="1.1">
 <metadata>
  <rdf:RDF xmlns:dc="http://purl.org/dc/elements/1.1/" xmlns:cc="http://creativecommons.org/ns#" xmlns:rdf="http://www.w3.org/1999/02/22-rdf-syntax-ns#">
   <cc:Work>
    <dc:type rdf:resource="http://purl.org/dc/dcmitype/StillImage"/>
    <dc:date>2026-08-03T13:01:46.194431</dc:date>
    <dc:format>image/svg+xml</dc:format>
    <dc:creator>
     <cc:Agent>
      <dc:title>Matplotlib v3.11.0, https://matplotlib.org/</dc:title>
     </cc:Agent>
    </dc:creator>
   </cc:Work>
  </rdf:RDF>
 </metadata>
 <defs>
  <style type="text/css">*{stroke-linejoin: round; stroke-linecap: butt}</style>
 </defs>
 <g id="figure_1">
  <g id="patch_1">
   <path d="M 0 383.366125 
L 565.500781 383.366125 
L 565.500781 0 
L 0 0 
z
" style="fill: #ffffff"/>
  </g>
  <g id="axes_1">
   <g id="patch_2">
    <path d="M 56.100781 280.366125 
L 558.300781 280.366125 
L 558.300781 22.318125 
L 56.100781 22.318125 
z
" style="fill: #ffffff"/>
   </g>
   <g id="FillBetweenPolyCollection_1">
    <defs>
     <path id="ma06b1655b7" d="M 78.928054 -337.60295 
L 78.928054 -322.229771 
L 135.996236 -332.919571 
L 193.064418 -337.287004 
L 250.132599 -330.409636 
L 364.268963 -336.245958 
L 535.473509 -337.315885 
L 535.473509 -343.108727 
L 535.473509 -343.108727 
L 364.268963 -344.19654 
L 250.132599 -346.504133 
L 193.064418 -345.520082 
L 135.996236 -339.231625 
L 78.928054 -337.60295 
z
"/>
    </defs>
    <g clip-path="url(#p7a508eaf21)">
     <use xlink:href="#ma06b1655b7" x="0" y="383.366125" style="fill: #1f77b4; fill-opacity: 0.12"/>
    </g>
   </g>
   <g id="FillBetweenPolyCollection_2">
    <defs>
     <path id="mdf08bac349" d="M 78.928054 -114.729455 
L 78.928054 -114.729455 
L 135.996236 -114.729455 
L 193.064418 -114.729455 
L 250.132599 -114.729455 
L 364.268963 -114.729455 
L 535.473509 -159.518337 
L 535.473509 -168.619652 
L 535.473509 -168.619652 
L 364.268963 -160.815798 
L 250.132599 -165.907427 
L 193.064418 -155.182356 
L 135.996236 -158.189783 
L 78.928054 -114.729455 
z
"/>
    </defs>
    <g clip-path="url(#p7a508eaf21)">
     <use xlink:href="#mdf08bac349" x="0" y="383.366125" style="fill: #ff7f0e; fill-opacity: 0.12"/>
    </g>
   </g>
   <g id="FillBetweenPolyCollection_3">
    <defs>
     <path id="m4de1f39477" d="M 78.928054 -337.60295 
L 78.928054 -322.229771 
L 135.996236 -334.418301 
L 193.064418 -326.68544 
L 250.132599 -332.552037 
L 364.268963 -338.871446 
L 535.473509 -335.225818 
L 535.473509 -347.884558 
L 535.473509 -347.884558 
L 364.268963 -345.439777 
L 250.132599 -346.298099 
L 193.064418 -334.383329 
L 135.996236 -340.672502 
L 78.928054 -337.60295 
z
"/>
    </defs>
    <g clip-path="url(#p7a508eaf21)">
     <use xlink:href="#m4de1f39477" x="0" y="383.366125" style="fill: #2ca02c; fill-opacity: 0.12"/>
    </g>
   </g>
   <g id="FillBetweenPolyCollection_4">
    <defs>
     <path id="mfb04f93ed2" d="M 78.928054 -114.729455 
L 78.928054 -114.729455 
L 135.996236 -157.333755 
L 193.064418 -159.095695 
L 250.132599 -169.363973 
L 364.268963 -168.596509 
L 535.473509 -170.895525 
L 535.473509 -192.018086 
L 535.473509 -192.018086 
L 364.268963 -180.379401 
L 250.132599 -171.71319 
L 193.064418 -163.974397 
L 135.996236 -159.589467 
L 78.928054 -114.729455 
z
"/>
    </defs>
    <g clip-path="url(#p7a508eaf21)">
     <use xlink:href="#mfb04f93ed2" x="0" y="383.366125" style="fill: #d62728; fill-opacity: 0.12"/>
    </g>
   </g>
   <g id="FillBetweenPolyCollection_5">
    <defs>
     <path id="md2f017b007" d="M 78.928054 -337.60295 
L 78.928054 -322.229771 
L 135.996236 -330.238218 
L 193.064418 -332.640436 
L 250.132599 -340.011125 
L 364.268963 -335.456511 
L 535.473509 -338.223087 
L 535.473509 -347.966335 
L 535.473509 -347.966335 
L 364.268963 -343.253095 
L 250.132599 -349.318545 
L 193.064418 -344.419553 
L 135.996236 -335.973832 
L 78.928054 -337.60295 
z
"/>
    </defs>
    <g clip-path="url(#p7a508eaf21)">
     <use xlink:href="#md2f017b007" x="0" y="383.366125" style="fill: #9467bd; fill-opacity: 0.12"/>
    </g>
   </g>
   <g id="FillBetweenPolyCollection_6">
    <defs>
     <path id="m005f5de914" d="M 78.928054 -114.729455 
L 78.928054 -114.729455 
L 135.996236 -157.333755 
L 193.064418 -114.729455 
L 250.132599 -172.081316 
L 364.268963 -173.869295 
L 535.473509 -188.128251 
L 535.473509 -200.343135 
L 535.473509 -200.343135 
L 364.268963 -178.322164 
L 250.132599 -180.431353 
L 193.064418 -162.000316 
L 135.996236 -163.960429 
L 78.928054 -114.729455 
z
"/>
    </defs>
    <g clip-path="url(#p7a508eaf21)">
     <use xlink:href="#m005f5de914" x="0" y="383.366125" style="fill: #8c564b; fill-opacity: 0.12"/>
    </g>
   </g>
   <g id="matplotlib.axis_1">
    <g id="xtick_1">
     <g id="line2d_1">
      <path d="M 78.928054 280.366125 
L 78.928054 22.318125 
" clip-path="url(#p7a508eaf21)" style="fill: none; stroke: #b0b0b0; stroke-opacity: 0.25; stroke-width: 0.8; stroke-linecap: square"/>
     </g>
     <g id="line2d_2">
      <defs>
       <path id="mfe4d01fae4" d="M 0 0 
L 0 3.5 
" style="stroke: #000000; stroke-width: 0.8"/>
      </defs>
      <g>
       <use xlink:href="#mfe4d01fae4" x="78.928054" y="280.366125" style="stroke: #000000; stroke-width: 0.8"/>
      </g>
     </g>
     <g id="text_1">
      <!-- 0 -->
      <g transform="translate(75.746804 294.963781) scale(0.1 -0.1)">
       <defs>
        <path id="DejaVuSans-13" d="M 2034 4250 
Q 1547 4250 1301 3770 
Q 1056 3291 1056 2328 
Q 1056 1369 1301 889 
Q 1547 409 2034 409 
Q 2525 409 2770 889 
Q 3016 1369 3016 2328 
Q 3016 3291 2770 3770 
Q 2525 4250 2034 4250 
z
M 2034 4750 
Q 2819 4750 3233 4129 
Q 3647 3509 3647 2328 
Q 3647 1150 3233 529 
Q 2819 -91 2034 -91 
Q 1250 -91 836 529 
Q 422 1150 422 2328 
Q 422 3509 836 4129 
Q 1250 4750 2034 4750 
z
" transform="scale(0.015625)"/>
       </defs>
       <use xlink:href="#DejaVuSans-13"/>
      </g>
     </g>
    </g>
    <g id="xtick_2">
     <g id="line2d_3">
      <path d="M 135.996236 280.366125 
L 135.996236 22.318125 
" clip-path="url(#p7a508eaf21)" style="fill: none; stroke: #b0b0b0; stroke-opacity: 0.25; stroke-width: 0.8; stroke-linecap: square"/>
     </g>
     <g id="line2d_4">
      <g>
       <use xlink:href="#mfe4d01fae4" x="135.996236" y="280.366125" style="stroke: #000000; stroke-width: 0.8"/>
      </g>
     </g>
     <g id="text_2">
      <!-- 2 -->
      <g transform="translate(132.814986 294.963781) scale(0.1 -0.1)">
       <defs>
        <path id="DejaVuSans-15" d="M 1228 531 
L 3431 531 
L 3431 0 
L 469 0 
L 469 531 
Q 828 903 1448 1529 
Q 2069 2156 2228 2338 
Q 2531 2678 2651 2914 
Q 2772 3150 2772 3378 
Q 2772 3750 2511 3984 
Q 2250 4219 1831 4219 
Q 1534 4219 1204 4116 
Q 875 4013 500 3803 
L 500 4441 
Q 881 4594 1212 4672 
Q 1544 4750 1819 4750 
Q 2544 4750 2975 4387 
Q 3406 4025 3406 3419 
Q 3406 3131 3298 2873 
Q 3191 2616 2906 2266 
Q 2828 2175 2409 1742 
Q 1991 1309 1228 531 
z
" transform="scale(0.015625)"/>
       </defs>
       <use xlink:href="#DejaVuSans-15"/>
      </g>
     </g>
    </g>
    <g id="xtick_3">
     <g id="line2d_5">
      <path d="M 193.064418 280.366125 
L 193.064418 22.318125 
" clip-path="url(#p7a508eaf21)" style="fill: none; stroke: #b0b0b0; stroke-opacity: 0.25; stroke-width: 0.8; stroke-linecap: square"/>
     </g>
     <g id="line2d_6">
      <g>
       <use xlink:href="#mfe4d01fae4" x="193.064418" y="280.366125" style="stroke: #000000; stroke-width: 0.8"/>
      </g>
     </g>
     <g id="text_3">
      <!-- 4 -->
      <g transform="translate(189.883168 294.963781) scale(0.1 -0.1)">
       <defs>
        <path id="DejaVuSans-17" d="M 2419 4116 
L 825 1625 
L 2419 1625 
L 2419 4116 
z
M 2253 4666 
L 3047 4666 
L 3047 1625 
L 3713 1625 
L 3713 1100 
L 3047 1100 
L 3047 0 
L 2419 0 
L 2419 1100 
L 313 1100 
L 313 1709 
L 2253 4666 
z
" transform="scale(0.015625)"/>
       </defs>
       <use xlink:href="#DejaVuSans-17"/>
      </g>
     </g>
    </g>
    <g id="xtick_4">
     <g id="line2d_7">
      <path d="M 250.132599 280.366125 
L 250.132599 22.318125 
" clip-path="url(#p7a508eaf21)" style="fill: none; stroke: #b0b0b0; stroke-opacity: 0.25; stroke-width: 0.8; stroke-linecap: square"/>
     </g>
     <g id="line2d_8">
      <g>
       <use xlink:href="#mfe4d01fae4" x="250.132599" y="280.366125" style="stroke: #000000; stroke-width: 0.8"/>
      </g>
     </g>
     <g id="text_4">
      <!-- 6 -->
      <g transform="translate(246.951349 294.963781) scale(0.1 -0.1)">
       <defs>
        <path id="DejaVuSans-19" d="M 2113 2584 
Q 1688 2584 1439 2293 
Q 1191 2003 1191 1497 
Q 1191 994 1439 701 
Q 1688 409 2113 409 
Q 2538 409 2786 701 
Q 3034 994 3034 1497 
Q 3034 2003 2786 2293 
Q 2538 2584 2113 2584 
z
M 3366 4563 
L 3366 3988 
Q 3128 4100 2886 4159 
Q 2644 4219 2406 4219 
Q 1781 4219 1451 3797 
Q 1122 3375 1075 2522 
Q 1259 2794 1537 2939 
Q 1816 3084 2150 3084 
Q 2853 3084 3261 2657 
Q 3669 2231 3669 1497 
Q 3669 778 3244 343 
Q 2819 -91 2113 -91 
Q 1303 -91 875 529 
Q 447 1150 447 2328 
Q 447 3434 972 4092 
Q 1497 4750 2381 4750 
Q 2619 4750 2861 4703 
Q 3103 4656 3366 4563 
z
" transform="scale(0.015625)"/>
       </defs>
       <use xlink:href="#DejaVuSans-19"/>
      </g>
     </g>
    </g>
    <g id="xtick_5">
     <g id="line2d_9">
      <path d="M 364.268963 280.366125 
L 364.268963 22.318125 
" clip-path="url(#p7a508eaf21)" style="fill: none; stroke: #b0b0b0; stroke-opacity: 0.25; stroke-width: 0.8; stroke-linecap: square"/>
     </g>
     <g id="line2d_10">
      <g>
       <use xlink:href="#mfe4d01fae4" x="364.268963" y="280.366125" style="stroke: #000000; stroke-width: 0.8"/>
      </g>
     </g>
     <g id="text_5">
      <!-- 10 -->
      <g transform="translate(357.906463 294.963781) scale(0.1 -0.1)">
       <defs>
        <path id="DejaVuSans-14" d="M 794 531 
L 1825 531 
L 1825 4091 
L 703 3866 
L 703 4441 
L 1819 4666 
L 2450 4666 
L 2450 531 
L 3481 531 
L 3481 0 
L 794 0 
L 794 531 
z
" transform="scale(0.015625)"/>
       </defs>
       <use xlink:href="#DejaVuSans-14"/>
       <use xlink:href="#DejaVuSans-13" transform="translate(63.625 0)"/>
      </g>
     </g>
    </g>
    <g id="xtick_6">
     <g id="line2d_11">
      <path d="M 535.473509 280.366125 
L 535.473509 22.318125 
" clip-path="url(#p7a508eaf21)" style="fill: none; stroke: #b0b0b0; stroke-opacity: 0.25; stroke-width: 0.8; stroke-linecap: square"/>
     </g>
     <g id="line2d_12">
      <g>
       <use xlink:href="#mfe4d01fae4" x="535.473509" y="280.366125" style="stroke: #000000; stroke-width: 0.8"/>
      </g>
     </g>
     <g id="text_6">
      <!-- 16 -->
      <g transform="translate(529.111009 294.963781) scale(0.1 -0.1)">
       <use xlink:href="#DejaVuSans-14"/>
       <use xlink:href="#DejaVuSans-19" transform="translate(63.625 0)"/>
      </g>
     </g>
    </g>
    <g id="text_7">
     <!-- Density polynomial degree -->
     <g transform="translate(239.967969 308.964563) scale(0.1 -0.1)">
      <defs>
       <path id="DejaVuSans-27" d="M 1259 4147 
L 1259 519 
L 2022 519 
Q 2988 519 3436 956 
Q 3884 1394 3884 2338 
Q 3884 3275 3436 3711 
Q 2988 4147 2022 4147 
L 1259 4147 
z
M 628 4666 
L 1925 4666 
Q 3281 4666 3915 4102 
Q 4550 3538 4550 2338 
Q 4550 1131 3912 565 
Q 3275 0 1925 0 
L 628 0 
L 628 4666 
z
" transform="scale(0.015625)"/>
       <path id="DejaVuSans-48" d="M 3597 1894 
L 3597 1613 
L 953 1613 
Q 991 1019 1311 708 
Q 1631 397 2203 397 
Q 2534 397 2845 478 
Q 3156 559 3463 722 
L 3463 178 
Q 3153 47 2828 -22 
Q 2503 -91 2169 -91 
Q 1331 -91 842 396 
Q 353 884 353 1716 
Q 353 2575 817 3079 
Q 1281 3584 2069 3584 
Q 2775 3584 3186 3129 
Q 3597 2675 3597 1894 
z
M 3022 2063 
Q 3016 2534 2758 2815 
Q 2500 3097 2075 3097 
Q 1594 3097 1305 2825 
Q 1016 2553 972 2059 
L 3022 2063 
z
" transform="scale(0.015625)"/>
       <path id="DejaVuSans-51" d="M 3513 2113 
L 3513 0 
L 2938 0 
L 2938 2094 
Q 2938 2591 2744 2837 
Q 2550 3084 2163 3084 
Q 1697 3084 1428 2787 
Q 1159 2491 1159 1978 
L 1159 0 
L 581 0 
L 581 3500 
L 1159 3500 
L 1159 2956 
Q 1366 3272 1645 3428 
Q 1925 3584 2291 3584 
Q 2894 3584 3203 3211 
Q 3513 2838 3513 2113 
z
" transform="scale(0.015625)"/>
       <path id="DejaVuSans-56" d="M 2834 3397 
L 2834 2853 
Q 2591 2978 2328 3040 
Q 2066 3103 1784 3103 
Q 1356 3103 1142 2972 
Q 928 2841 928 2578 
Q 928 2378 1081 2264 
Q 1234 2150 1697 2047 
L 1894 2003 
Q 2506 1872 2764 1633 
Q 3022 1394 3022 966 
Q 3022 478 2636 193 
Q 2250 -91 1575 -91 
Q 1294 -91 989 -36 
Q 684 19 347 128 
L 347 722 
Q 666 556 975 473 
Q 1284 391 1588 391 
Q 1994 391 2212 530 
Q 2431 669 2431 922 
Q 2431 1156 2273 1281 
Q 2116 1406 1581 1522 
L 1381 1569 
Q 847 1681 609 1914 
Q 372 2147 372 2553 
Q 372 3047 722 3315 
Q 1072 3584 1716 3584 
Q 2034 3584 2315 3537 
Q 2597 3491 2834 3397 
z
" transform="scale(0.015625)"/>
       <path id="DejaVuSans-4c" d="M 603 3500 
L 1178 3500 
L 1178 0 
L 603 0 
L 603 3500 
z
M 603 4863 
L 1178 4863 
L 1178 4134 
L 603 4134 
L 603 4863 
z
" transform="scale(0.015625)"/>
       <path id="DejaVuSans-57" d="M 1172 4494 
L 1172 3500 
L 2356 3500 
L 2356 3053 
L 1172 3053 
L 1172 1153 
Q 1172 725 1289 603 
Q 1406 481 1766 481 
L 2356 481 
L 2356 0 
L 1766 0 
Q 1100 0 847 248 
Q 594 497 594 1153 
L 594 3053 
L 172 3053 
L 172 3500 
L 594 3500 
L 594 4494 
L 1172 4494 
z
" transform="scale(0.015625)"/>
       <path id="DejaVuSans-5c" d="M 2059 -325 
Q 1816 -950 1584 -1140 
Q 1353 -1331 966 -1331 
L 506 -1331 
L 506 -850 
L 844 -850 
Q 1081 -850 1212 -737 
Q 1344 -625 1503 -206 
L 1606 56 
L 191 3500 
L 800 3500 
L 1894 763 
L 2988 3500 
L 3597 3500 
L 2059 -325 
z
" transform="scale(0.015625)"/>
       <path id="DejaVuSans-3" transform="scale(0.015625)"/>
       <path id="DejaVuSans-53" d="M 1159 525 
L 1159 -1331 
L 581 -1331 
L 581 3500 
L 1159 3500 
L 1159 2969 
Q 1341 3281 1617 3432 
Q 1894 3584 2278 3584 
Q 2916 3584 3314 3078 
Q 3713 2572 3713 1747 
Q 3713 922 3314 415 
Q 2916 -91 2278 -91 
Q 1894 -91 1617 61 
Q 1341 213 1159 525 
z
M 3116 1747 
Q 3116 2381 2855 2742 
Q 2594 3103 2138 3103 
Q 1681 3103 1420 2742 
Q 1159 2381 1159 1747 
Q 1159 1113 1420 752 
Q 1681 391 2138 391 
Q 2594 391 2855 752 
Q 3116 1113 3116 1747 
z
" transform="scale(0.015625)"/>
       <path id="DejaVuSans-52" d="M 1959 3097 
Q 1497 3097 1228 2736 
Q 959 2375 959 1747 
Q 959 1119 1226 758 
Q 1494 397 1959 397 
Q 2419 397 2687 759 
Q 2956 1122 2956 1747 
Q 2956 2369 2687 2733 
Q 2419 3097 1959 3097 
z
M 1959 3584 
Q 2709 3584 3137 3096 
Q 3566 2609 3566 1747 
Q 3566 888 3137 398 
Q 2709 -91 1959 -91 
Q 1206 -91 779 398 
Q 353 888 353 1747 
Q 353 2609 779 3096 
Q 1206 3584 1959 3584 
z
" transform="scale(0.015625)"/>
       <path id="DejaVuSans-4f" d="M 603 4863 
L 1178 4863 
L 1178 0 
L 603 0 
L 603 4863 
z
" transform="scale(0.015625)"/>
       <path id="DejaVuSans-50" d="M 3328 2828 
Q 3544 3216 3844 3400 
Q 4144 3584 4550 3584 
Q 5097 3584 5394 3201 
Q 5691 2819 5691 2113 
L 5691 0 
L 5113 0 
L 5113 2094 
Q 5113 2597 4934 2840 
Q 4756 3084 4391 3084 
Q 3944 3084 3684 2787 
Q 3425 2491 3425 1978 
L 3425 0 
L 2847 0 
L 2847 2094 
Q 2847 2600 2669 2842 
Q 2491 3084 2119 3084 
Q 1678 3084 1418 2786 
Q 1159 2488 1159 1978 
L 1159 0 
L 581 0 
L 581 3500 
L 1159 3500 
L 1159 2956 
Q 1356 3278 1631 3431 
Q 1906 3584 2284 3584 
Q 2666 3584 2933 3390 
Q 3200 3197 3328 2828 
z
" transform="scale(0.015625)"/>
       <path id="DejaVuSans-44" d="M 2194 1759 
Q 1497 1759 1228 1600 
Q 959 1441 959 1056 
Q 959 750 1161 570 
Q 1363 391 1709 391 
Q 2188 391 2477 730 
Q 2766 1069 2766 1631 
L 2766 1759 
L 2194 1759 
z
M 3341 1997 
L 3341 0 
L 2766 0 
L 2766 531 
Q 2569 213 2275 61 
Q 1981 -91 1556 -91 
Q 1019 -91 701 211 
Q 384 513 384 1019 
Q 384 1609 779 1909 
Q 1175 2209 1959 2209 
L 2766 2209 
L 2766 2266 
Q 2766 2663 2505 2880 
Q 2244 3097 1772 3097 
Q 1472 3097 1187 3025 
Q 903 2953 641 2809 
L 641 3341 
Q 956 3463 1253 3523 
Q 1550 3584 1831 3584 
Q 2591 3584 2966 3190 
Q 3341 2797 3341 1997 
z
" transform="scale(0.015625)"/>
       <path id="DejaVuSans-47" d="M 2906 2969 
L 2906 4863 
L 3481 4863 
L 3481 0 
L 2906 0 
L 2906 525 
Q 2725 213 2448 61 
Q 2172 -91 1784 -91 
Q 1150 -91 751 415 
Q 353 922 353 1747 
Q 353 2572 751 3078 
Q 1150 3584 1784 3584 
Q 2172 3584 2448 3432 
Q 2725 3281 2906 2969 
z
M 947 1747 
Q 947 1113 1208 752 
Q 1469 391 1925 391 
Q 2381 391 2643 752 
Q 2906 1113 2906 1747 
Q 2906 2381 2643 2742 
Q 2381 3103 1925 3103 
Q 1469 3103 1208 2742 
Q 947 2381 947 1747 
z
" transform="scale(0.015625)"/>
       <path id="DejaVuSans-4a" d="M 2906 1791 
Q 2906 2416 2648 2759 
Q 2391 3103 1925 3103 
Q 1463 3103 1205 2759 
Q 947 2416 947 1791 
Q 947 1169 1205 825 
Q 1463 481 1925 481 
Q 2391 481 2648 825 
Q 2906 1169 2906 1791 
z
M 3481 434 
Q 3481 -459 3084 -895 
Q 2688 -1331 1869 -1331 
Q 1566 -1331 1297 -1286 
Q 1028 -1241 775 -1147 
L 775 -588 
Q 1028 -725 1275 -790 
Q 1522 -856 1778 -856 
Q 2344 -856 2625 -561 
Q 2906 -266 2906 331 
L 2906 616 
Q 2728 306 2450 153 
Q 2172 0 1784 0 
Q 1141 0 747 490 
Q 353 981 353 1791 
Q 353 2603 747 3093 
Q 1141 3584 1784 3584 
Q 2172 3584 2450 3431 
Q 2728 3278 2906 2969 
L 2906 3500 
L 3481 3500 
L 3481 434 
z
" transform="scale(0.015625)"/>
       <path id="DejaVuSans-55" d="M 2631 2963 
Q 2534 3019 2420 3045 
Q 2306 3072 2169 3072 
Q 1681 3072 1420 2755 
Q 1159 2438 1159 1844 
L 1159 0 
L 581 0 
L 581 3500 
L 1159 3500 
L 1159 2956 
Q 1341 3275 1631 3429 
Q 1922 3584 2338 3584 
Q 2397 3584 2469 3576 
Q 2541 3569 2628 3553 
L 2631 2963 
z
" transform="scale(0.015625)"/>
      </defs>
      <use xlink:href="#DejaVuSans-27"/>
      <use xlink:href="#DejaVuSans-48" transform="translate(77 0)"/>
      <use xlink:href="#DejaVuSans-51" transform="translate(138.53125 0)"/>
      <use xlink:href="#DejaVuSans-56" transform="translate(201.90625 0)"/>
      <use xlink:href="#DejaVuSans-4c" transform="translate(254 0)"/>
      <use xlink:href="#DejaVuSans-57" transform="translate(281.78125 0)"/>
      <use xlink:href="#DejaVuSans-5c" transform="translate(320.984375 0)"/>
      <use xlink:href="#DejaVuSans-3" transform="translate(380.171875 0)"/>
      <use xlink:href="#DejaVuSans-53" transform="translate(411.953125 0)"/>
      <use xlink:href="#DejaVuSans-52" transform="translate(475.4375 0)"/>
      <use xlink:href="#DejaVuSans-4f" transform="translate(536.625 0)"/>
      <use xlink:href="#DejaVuSans-5c" transform="translate(564.40625 0)"/>
      <use xlink:href="#DejaVuSans-51" transform="translate(623.59375 0)"/>
      <use xlink:href="#DejaVuSans-52" transform="translate(686.96875 0)"/>
      <use xlink:href="#DejaVuSans-50" transform="translate(748.15625 0)"/>
      <use xlink:href="#DejaVuSans-4c" transform="translate(845.5625 0)"/>
      <use xlink:href="#DejaVuSans-44" transform="translate(873.34375 0)"/>
      <use xlink:href="#DejaVuSans-4f" transform="translate(934.625 0)"/>
      <use xlink:href="#DejaVuSans-3" transform="translate(962.40625 0)"/>
      <use xlink:href="#DejaVuSans-47" transform="translate(994.1875 0)"/>
      <use xlink:href="#DejaVuSans-48" transform="translate(1057.671875 0)"/>
      <use xlink:href="#DejaVuSans-4a" transform="translate(1119.203125 0)"/>
      <use xlink:href="#DejaVuSans-55" transform="translate(1182.6875 0)"/>
      <use xlink:href="#DejaVuSans-48" transform="translate(1221.59375 0)"/>
      <use xlink:href="#DejaVuSans-48" transform="translate(1283.125 0)"/>
     </g>
    </g>
   </g>
   <g id="matplotlib.axis_2">
    <g id="ytick_1">
     <g id="line2d_13">
      <path d="M 56.100781 268.63667 
L 558.300781 268.63667 
" clip-path="url(#p7a508eaf21)" style="fill: none; stroke: #b0b0b0; stroke-opacity: 0.25; stroke-width: 0.8; stroke-linecap: square"/>
     </g>
     <g id="line2d_14">
      <defs>
       <path id="me510a0f84e" d="M 0 0 
L -3.5 0 
" style="stroke: #000000; stroke-width: 0.8"/>
      </defs>
      <g>
       <use xlink:href="#me510a0f84e" x="56.100781" y="268.63667" style="stroke: #000000; stroke-width: 0.8"/>
      </g>
     </g>
     <g id="text_8">
      <!-- $\mathdefault{10^{-18}}$ -->
      <g transform="translate(21.200781 273.33667) scale(0.1 -0.1)">
       <defs>
        <path id="DejaVuSans-c9c" d="M 678 2272 
L 4684 2272 
L 4684 1741 
L 678 1741 
L 678 2272 
z
" transform="scale(0.015625)"/>
        <path id="DejaVuSans-1b" d="M 2034 2216 
Q 1584 2216 1326 1975 
Q 1069 1734 1069 1313 
Q 1069 891 1326 650 
Q 1584 409 2034 409 
Q 2484 409 2743 651 
Q 3003 894 3003 1313 
Q 3003 1734 2745 1975 
Q 2488 2216 2034 2216 
z
M 1403 2484 
Q 997 2584 770 2862 
Q 544 3141 544 3541 
Q 544 4100 942 4425 
Q 1341 4750 2034 4750 
Q 2731 4750 3128 4425 
Q 3525 4100 3525 3541 
Q 3525 3141 3298 2862 
Q 3072 2584 2669 2484 
Q 3125 2378 3379 2068 
Q 3634 1759 3634 1313 
Q 3634 634 3220 271 
Q 2806 -91 2034 -91 
Q 1263 -91 848 271 
Q 434 634 434 1313 
Q 434 1759 690 2068 
Q 947 2378 1403 2484 
z
M 1172 3481 
Q 1172 3119 1398 2916 
Q 1625 2713 2034 2713 
Q 2441 2713 2670 2916 
Q 2900 3119 2900 3481 
Q 2900 3844 2670 4047 
Q 2441 4250 2034 4250 
Q 1625 4250 1398 4047 
Q 1172 3844 1172 3481 
z
" transform="scale(0.015625)"/>
       </defs>
       <use xlink:href="#DejaVuSans-14" transform="translate(0 0.746875)"/>
       <use xlink:href="#DejaVuSans-13" transform="translate(63.623047 0.746875)"/>
       <use xlink:href="#DejaVuSans-c9c" transform="translate(128.203125 42.046875) scale(0.7)"/>
       <use xlink:href="#DejaVuSans-14" transform="translate(186.855469 42.046875) scale(0.7)"/>
       <use xlink:href="#DejaVuSans-1b" transform="translate(231.391602 42.046875) scale(0.7)"/>
      </g>
     </g>
    </g>
    <g id="ytick_2">
     <g id="line2d_15">
      <path d="M 56.100781 227.181064 
L 558.300781 227.181064 
" clip-path="url(#p7a508eaf21)" style="fill: none; stroke: #b0b0b0; stroke-opacity: 0.25; stroke-width: 0.8; stroke-linecap: square"/>
     </g>
     <g id="line2d_16">
      <g>
       <use xlink:href="#me510a0f84e" x="56.100781" y="227.181064" style="stroke: #000000; stroke-width: 0.8"/>
      </g>
     </g>
     <g id="text_9">
      <!-- $\mathdefault{10^{-16}}$ -->
      <g transform="translate(21.200781 231.881064) scale(0.1 -0.1)">
       <use xlink:href="#DejaVuSans-14" transform="translate(0 0.746875)"/>
       <use xlink:href="#DejaVuSans-13" transform="translate(63.623047 0.746875)"/>
       <use xlink:href="#DejaVuSans-c9c" transform="translate(128.203125 42.046875) scale(0.7)"/>
       <use xlink:href="#DejaVuSans-14" transform="translate(186.855469 42.046875) scale(0.7)"/>
       <use xlink:href="#DejaVuSans-19" transform="translate(231.391602 42.046875) scale(0.7)"/>
      </g>
     </g>
    </g>
    <g id="ytick_3">
     <g id="line2d_17">
      <path d="M 56.100781 185.725458 
L 558.300781 185.725458 
" clip-path="url(#p7a508eaf21)" style="fill: none; stroke: #b0b0b0; stroke-opacity: 0.25; stroke-width: 0.8; stroke-linecap: square"/>
     </g>
     <g id="line2d_18">
      <g>
       <use xlink:href="#me510a0f84e" x="56.100781" y="185.725458" style="stroke: #000000; stroke-width: 0.8"/>
      </g>
     </g>
     <g id="text_10">
      <!-- $\mathdefault{10^{-14}}$ -->
      <g transform="translate(21.200781 190.375458) scale(0.1 -0.1)">
       <use xlink:href="#DejaVuSans-14" transform="translate(0 0.665625)"/>
       <use xlink:href="#DejaVuSans-13" transform="translate(63.623047 0.665625)"/>
       <use xlink:href="#DejaVuSans-c9c" transform="translate(128.203125 41.965625) scale(0.7)"/>
       <use xlink:href="#DejaVuSans-14" transform="translate(186.855469 41.965625) scale(0.7)"/>
       <use xlink:href="#DejaVuSans-17" transform="translate(231.391602 41.965625) scale(0.7)"/>
      </g>
     </g>
    </g>
    <g id="ytick_4">
     <g id="line2d_19">
      <path d="M 56.100781 144.269852 
L 558.300781 144.269852 
" clip-path="url(#p7a508eaf21)" style="fill: none; stroke: #b0b0b0; stroke-opacity: 0.25; stroke-width: 0.8; stroke-linecap: square"/>
     </g>
     <g id="line2d_20">
      <g>
       <use xlink:href="#me510a0f84e" x="56.100781" y="144.269852" style="stroke: #000000; stroke-width: 0.8"/>
      </g>
     </g>
     <g id="text_11">
      <!-- $\mathdefault{10^{-12}}$ -->
      <g transform="translate(21.200781 148.969852) scale(0.1 -0.1)">
       <use xlink:href="#DejaVuSans-14" transform="translate(0 0.746875)"/>
       <use xlink:href="#DejaVuSans-13" transform="translate(63.623047 0.746875)"/>
       <use xlink:href="#DejaVuSans-c9c" transform="translate(128.203125 42.046875) scale(0.7)"/>
       <use xlink:href="#DejaVuSans-14" transform="translate(186.855469 42.046875) scale(0.7)"/>
       <use xlink:href="#DejaVuSans-15" transform="translate(231.391602 42.046875) scale(0.7)"/>
      </g>
     </g>
    </g>
    <g id="ytick_5">
     <g id="line2d_21">
      <path d="M 56.100781 102.814246 
L 558.300781 102.814246 
" clip-path="url(#p7a508eaf21)" style="fill: none; stroke: #b0b0b0; stroke-opacity: 0.25; stroke-width: 0.8; stroke-linecap: square"/>
     </g>
     <g id="line2d_22">
      <g>
       <use xlink:href="#me510a0f84e" x="56.100781" y="102.814246" style="stroke: #000000; stroke-width: 0.8"/>
      </g>
     </g>
     <g id="text_12">
      <!-- $\mathdefault{10^{-10}}$ -->
      <g transform="translate(21.200781 107.514246) scale(0.1 -0.1)">
       <use xlink:href="#DejaVuSans-14" transform="translate(0 0.746875)"/>
       <use xlink:href="#DejaVuSans-13" transform="translate(63.623047 0.746875)"/>
       <use xlink:href="#DejaVuSans-c9c" transform="translate(128.203125 42.046875) scale(0.7)"/>
       <use xlink:href="#DejaVuSans-14" transform="translate(186.855469 42.046875) scale(0.7)"/>
       <use xlink:href="#DejaVuSans-13" transform="translate(231.391602 42.046875) scale(0.7)"/>
      </g>
     </g>
    </g>
    <g id="ytick_6">
     <g id="line2d_23">
      <path d="M 56.100781 61.35864 
L 558.300781 61.35864 
" clip-path="url(#p7a508eaf21)" style="fill: none; stroke: #b0b0b0; stroke-opacity: 0.25; stroke-width: 0.8; stroke-linecap: square"/>
     </g>
     <g id="line2d_24">
      <g>
       <use xlink:href="#me510a0f84e" x="56.100781" y="61.35864" style="stroke: #000000; stroke-width: 0.8"/>
      </g>
     </g>
     <g id="text_13">
      <!-- $\mathdefault{10^{-8}}$ -->
      <g transform="translate(25.600781 66.05864) scale(0.1 -0.1)">
       <use xlink:href="#DejaVuSans-14" transform="translate(0 0.746875)"/>
       <use xlink:href="#DejaVuSans-13" transform="translate(63.623047 0.746875)"/>
       <use xlink:href="#DejaVuSans-c9c" transform="translate(128.203125 42.046875) scale(0.7)"/>
       <use xlink:href="#DejaVuSans-1b" transform="translate(186.855469 42.046875) scale(0.7)"/>
      </g>
     </g>
    </g>
    <g id="text_14">
     <!-- Relative partition-function error -->
     <g transform="translate(14.798438 230.238219) rotate(-90) scale(0.1 -0.1)">
      <defs>
       <path id="DejaVuSans-35" d="M 2841 2188 
Q 3044 2119 3236 1894 
Q 3428 1669 3622 1275 
L 4263 0 
L 3584 0 
L 2988 1197 
Q 2756 1666 2539 1819 
Q 2322 1972 1947 1972 
L 1259 1972 
L 1259 0 
L 628 0 
L 628 4666 
L 2053 4666 
Q 2853 4666 3247 4331 
Q 3641 3997 3641 3322 
Q 3641 2881 3436 2590 
Q 3231 2300 2841 2188 
z
M 1259 4147 
L 1259 2491 
L 2053 2491 
Q 2509 2491 2742 2702 
Q 2975 2913 2975 3322 
Q 2975 3731 2742 3939 
Q 2509 4147 2053 4147 
L 1259 4147 
z
" transform="scale(0.015625)"/>
       <path id="DejaVuSans-59" d="M 191 3500 
L 800 3500 
L 1894 563 
L 2988 3500 
L 3597 3500 
L 2284 0 
L 1503 0 
L 191 3500 
z
" transform="scale(0.015625)"/>
       <path id="DejaVuSans-10" d="M 313 2009 
L 1997 2009 
L 1997 1497 
L 313 1497 
L 313 2009 
z
" transform="scale(0.015625)"/>
       <path id="DejaVuSans-49" d="M 2375 4863 
L 2375 4384 
L 1825 4384 
Q 1516 4384 1395 4259 
Q 1275 4134 1275 3809 
L 1275 3500 
L 2222 3500 
L 2222 3053 
L 1275 3053 
L 1275 0 
L 697 0 
L 697 3053 
L 147 3053 
L 147 3500 
L 697 3500 
L 697 3744 
Q 697 4328 969 4595 
Q 1241 4863 1831 4863 
L 2375 4863 
z
" transform="scale(0.015625)"/>
       <path id="DejaVuSans-58" d="M 544 1381 
L 544 3500 
L 1119 3500 
L 1119 1403 
Q 1119 906 1312 657 
Q 1506 409 1894 409 
Q 2359 409 2629 706 
Q 2900 1003 2900 1516 
L 2900 3500 
L 3475 3500 
L 3475 0 
L 2900 0 
L 2900 538 
Q 2691 219 2414 64 
Q 2138 -91 1772 -91 
Q 1169 -91 856 284 
Q 544 659 544 1381 
z
M 1991 3584 
L 1991 3584 
z
" transform="scale(0.015625)"/>
       <path id="DejaVuSans-46" d="M 3122 3366 
L 3122 2828 
Q 2878 2963 2633 3030 
Q 2388 3097 2138 3097 
Q 1578 3097 1268 2742 
Q 959 2388 959 1747 
Q 959 1106 1268 751 
Q 1578 397 2138 397 
Q 2388 397 2633 464 
Q 2878 531 3122 666 
L 3122 134 
Q 2881 22 2623 -34 
Q 2366 -91 2075 -91 
Q 1284 -91 818 406 
Q 353 903 353 1747 
Q 353 2603 823 3093 
Q 1294 3584 2113 3584 
Q 2378 3584 2631 3529 
Q 2884 3475 3122 3366 
z
" transform="scale(0.015625)"/>
      </defs>
      <use xlink:href="#DejaVuSans-35"/>
      <use xlink:href="#DejaVuSans-48" transform="translate(65 0)"/>
      <use xlink:href="#DejaVuSans-4f" transform="translate(126.53125 0)"/>
      <use xlink:href="#DejaVuSans-44" transform="translate(154.3125 0)"/>
      <use xlink:href="#DejaVuSans-57" transform="translate(215.59375 0)"/>
      <use xlink:href="#DejaVuSans-4c" transform="translate(254.796875 0)"/>
      <use xlink:href="#DejaVuSans-59" transform="translate(282.578125 0)"/>
      <use xlink:href="#DejaVuSans-48" transform="translate(341.765625 0)"/>
      <use xlink:href="#DejaVuSans-3" transform="translate(403.296875 0)"/>
      <use xlink:href="#DejaVuSans-53" transform="translate(435.078125 0)"/>
      <use xlink:href="#DejaVuSans-44" transform="translate(498.5625 0)"/>
      <use xlink:href="#DejaVuSans-55" transform="translate(559.84375 0)"/>
      <use xlink:href="#DejaVuSans-57" transform="translate(600.953125 0)"/>
      <use xlink:href="#DejaVuSans-4c" transform="translate(640.15625 0)"/>
      <use xlink:href="#DejaVuSans-57" transform="translate(667.9375 0)"/>
      <use xlink:href="#DejaVuSans-4c" transform="translate(707.140625 0)"/>
      <use xlink:href="#DejaVuSans-52" transform="translate(734.921875 0)"/>
      <use xlink:href="#DejaVuSans-51" transform="translate(796.109375 0)"/>
      <use xlink:href="#DejaVuSans-10" transform="translate(859.484375 0)"/>
      <use xlink:href="#DejaVuSans-49" transform="translate(895.5625 0)"/>
      <use xlink:href="#DejaVuSans-58" transform="translate(930.765625 0)"/>
      <use xlink:href="#DejaVuSans-51" transform="translate(994.140625 0)"/>
      <use xlink:href="#DejaVuSans-46" transform="translate(1057.515625 0)"/>
      <use xlink:href="#DejaVuSans-57" transform="translate(1112.5 0)"/>
      <use xlink:href="#DejaVuSans-4c" transform="translate(1151.703125 0)"/>
      <use xlink:href="#DejaVuSans-52" transform="translate(1179.484375 0)"/>
      <use xlink:href="#DejaVuSans-51" transform="translate(1240.671875 0)"/>
      <use xlink:href="#DejaVuSans-3" transform="translate(1304.046875 0)"/>
      <use xlink:href="#DejaVuSans-48" transform="translate(1335.828125 0)"/>
      <use xlink:href="#DejaVuSans-55" transform="translate(1397.359375 0)"/>
      <use xlink:href="#DejaVuSans-55" transform="translate(1436.71875 0)"/>
      <use xlink:href="#DejaVuSans-52" transform="translate(1475.625 0)"/>
      <use xlink:href="#DejaVuSans-55" transform="translate(1536.8125 0)"/>
     </g>
    </g>
   </g>
   <g id="line2d_25">
    <path d="M 78.928054 50.838252 
L 135.996236 48.840959 
L 193.064418 41.367381 
L 250.132599 41.049877 
L 364.268963 42.755385 
L 535.473509 43.436503 
" clip-path="url(#p7a508eaf21)" style="fill: none; stroke-dasharray: 6.66,2.88; stroke-dashoffset: 0; stroke: #1f77b4; stroke-width: 1.8"/>
    <defs>
     <path id="m51bcbd3ee1" d="M -2.5 2.5 
L 2.5 2.5 
L 2.5 -2.5 
L -2.5 -2.5 
z
" style="stroke: #1f77b4; stroke-linejoin: miter"/>
    </defs>
    <g clip-path="url(#p7a508eaf21)">
     <use xlink:href="#m51bcbd3ee1" x="78.928054" y="50.838252" style="fill: #1f77b4; stroke: #1f77b4; stroke-linejoin: miter"/>
     <use xlink:href="#m51bcbd3ee1" x="135.996236" y="48.840959" style="fill: #1f77b4; stroke: #1f77b4; stroke-linejoin: miter"/>
     <use xlink:href="#m51bcbd3ee1" x="193.064418" y="41.367381" style="fill: #1f77b4; stroke: #1f77b4; stroke-linejoin: miter"/>
     <use xlink:href="#m51bcbd3ee1" x="250.132599" y="41.049877" style="fill: #1f77b4; stroke: #1f77b4; stroke-linejoin: miter"/>
     <use xlink:href="#m51bcbd3ee1" x="364.268963" y="42.755385" style="fill: #1f77b4; stroke: #1f77b4; stroke-linejoin: miter"/>
     <use xlink:href="#m51bcbd3ee1" x="535.473509" y="43.436503" style="fill: #1f77b4; stroke: #1f77b4; stroke-linejoin: miter"/>
    </g>
   </g>
   <g id="line2d_26">
    <path d="M 78.928054 268.63667 
L 135.996236 232.411314 
L 193.064418 268.63667 
L 250.132599 227.737082 
L 364.268963 224.06662 
L 535.473509 220.740616 
" clip-path="url(#p7a508eaf21)" style="fill: none; stroke: #ff7f0e; stroke-width: 1.8; stroke-linecap: square"/>
    <defs>
     <path id="md0c83b7927" d="M -2.5 2.5 
L 2.5 2.5 
L 2.5 -2.5 
L -2.5 -2.5 
z
" style="stroke: #ff7f0e; stroke-linejoin: miter"/>
    </defs>
    <g clip-path="url(#p7a508eaf21)">
     <use xlink:href="#md0c83b7927" x="78.928054" y="268.63667" style="fill: #ff7f0e; stroke: #ff7f0e; stroke-linejoin: miter"/>
     <use xlink:href="#md0c83b7927" x="135.996236" y="232.411314" style="fill: #ff7f0e; stroke: #ff7f0e; stroke-linejoin: miter"/>
     <use xlink:href="#md0c83b7927" x="193.064418" y="268.63667" style="fill: #ff7f0e; stroke: #ff7f0e; stroke-linejoin: miter"/>
     <use xlink:href="#md0c83b7927" x="250.132599" y="227.737082" style="fill: #ff7f0e; stroke: #ff7f0e; stroke-linejoin: miter"/>
     <use xlink:href="#md0c83b7927" x="364.268963" y="224.06662" style="fill: #ff7f0e; stroke: #ff7f0e; stroke-linejoin: miter"/>
     <use xlink:href="#md0c83b7927" x="535.473509" y="220.740616" style="fill: #ff7f0e; stroke: #ff7f0e; stroke-linejoin: miter"/>
    </g>
   </g>
   <g id="line2d_27">
    <path d="M 78.928054 50.838252 
L 135.996236 45.197451 
L 193.064418 51.161967 
L 250.132599 44.17715 
L 364.268963 40.521384 
L 535.473509 40.714278 
" clip-path="url(#p7a508eaf21)" style="fill: none; stroke-dasharray: 6.66,2.88; stroke-dashoffset: 0; stroke: #2ca02c; stroke-width: 1.8"/>
    <defs>
     <path id="me184b752c1" d="M 0 2.5 
C 0.663008 2.5 1.29895 2.236584 1.767767 1.767767 
C 2.236584 1.29895 2.5 0.663008 2.5 0 
C 2.5 -0.663008 2.236584 -1.29895 1.767767 -1.767767 
C 1.29895 -2.236584 0.663008 -2.5 0 -2.5 
C -0.663008 -2.5 -1.29895 -2.236584 -1.767767 -1.767767 
C -2.236584 -1.29895 -2.5 -0.663008 -2.5 0 
C -2.5 0.663008 -2.236584 1.29895 -1.767767 1.767767 
C -1.29895 2.236584 -0.663008 2.5 0 2.5 
z
" style="stroke: #2ca02c"/>
    </defs>
    <g clip-path="url(#p7a508eaf21)">
     <use xlink:href="#me184b752c1" x="78.928054" y="50.838252" style="fill: #2ca02c; stroke: #2ca02c"/>
     <use xlink:href="#me184b752c1" x="135.996236" y="45.197451" style="fill: #2ca02c; stroke: #2ca02c"/>
     <use xlink:href="#me184b752c1" x="193.064418" y="51.161967" style="fill: #2ca02c; stroke: #2ca02c"/>
     <use xlink:href="#me184b752c1" x="250.132599" y="44.17715" style="fill: #2ca02c; stroke: #2ca02c"/>
     <use xlink:href="#me184b752c1" x="364.268963" y="40.521384" style="fill: #2ca02c; stroke: #2ca02c"/>
     <use xlink:href="#me184b752c1" x="535.473509" y="40.714278" style="fill: #2ca02c; stroke: #2ca02c"/>
    </g>
   </g>
   <g id="line2d_28">
    <path d="M 78.928054 268.63667 
L 135.996236 225.286044 
L 193.064418 220.764455 
L 250.132599 212.833245 
L 364.268963 206.865588 
L 535.473509 199.524956 
" clip-path="url(#p7a508eaf21)" style="fill: none; stroke: #d62728; stroke-width: 1.8; stroke-linecap: square"/>
    <defs>
     <path id="mc077f53908" d="M 0 2.5 
C 0.663008 2.5 1.29895 2.236584 1.767767 1.767767 
C 2.236584 1.29895 2.5 0.663008 2.5 0 
C 2.5 -0.663008 2.236584 -1.29895 1.767767 -1.767767 
C 1.29895 -2.236584 0.663008 -2.5 0 -2.5 
C -0.663008 -2.5 -1.29895 -2.236584 -1.767767 -1.767767 
C -2.236584 -1.29895 -2.5 -0.663008 -2.5 0 
C -2.5 0.663008 -2.236584 1.29895 -1.767767 1.767767 
C -1.29895 2.236584 -0.663008 2.5 0 2.5 
z
" style="stroke: #d62728"/>
    </defs>
    <g clip-path="url(#p7a508eaf21)">
     <use xlink:href="#mc077f53908" x="78.928054" y="268.63667" style="fill: #d62728; stroke: #d62728"/>
     <use xlink:href="#mc077f53908" x="135.996236" y="225.286044" style="fill: #d62728; stroke: #d62728"/>
     <use xlink:href="#mc077f53908" x="193.064418" y="220.764455" style="fill: #d62728; stroke: #d62728"/>
     <use xlink:href="#mc077f53908" x="250.132599" y="212.833245" style="fill: #d62728; stroke: #d62728"/>
     <use xlink:href="#mc077f53908" x="364.268963" y="206.865588" style="fill: #d62728; stroke: #d62728"/>
     <use xlink:href="#mc077f53908" x="535.473509" y="199.524956" style="fill: #d62728; stroke: #d62728"/>
    </g>
   </g>
   <g id="line2d_29">
    <path d="M 78.928054 50.838252 
L 135.996236 50.854508 
L 193.064418 45.90603 
L 250.132599 37.699904 
L 364.268963 42.986507 
L 535.473509 40.823972 
" clip-path="url(#p7a508eaf21)" style="fill: none; stroke-dasharray: 6.66,2.88; stroke-dashoffset: 0; stroke: #9467bd; stroke-width: 1.8"/>
    <defs>
     <path id="m8124329479" d="M -2.5 2.5 
L 2.5 2.5 
L 2.5 -2.5 
L -2.5 -2.5 
z
" style="stroke: #9467bd; stroke-linejoin: miter"/>
    </defs>
    <g clip-path="url(#p7a508eaf21)">
     <use xlink:href="#m8124329479" x="78.928054" y="50.838252" style="fill: #9467bd; stroke: #9467bd; stroke-linejoin: miter"/>
     <use xlink:href="#m8124329479" x="135.996236" y="50.854508" style="fill: #9467bd; stroke: #9467bd; stroke-linejoin: miter"/>
     <use xlink:href="#m8124329479" x="193.064418" y="45.90603" style="fill: #9467bd; stroke: #9467bd; stroke-linejoin: miter"/>
     <use xlink:href="#m8124329479" x="250.132599" y="37.699904" style="fill: #9467bd; stroke: #9467bd; stroke-linejoin: miter"/>
     <use xlink:href="#m8124329479" x="364.268963" y="42.986507" style="fill: #9467bd; stroke: #9467bd; stroke-linejoin: miter"/>
     <use xlink:href="#m8124329479" x="535.473509" y="40.823972" style="fill: #9467bd; stroke: #9467bd; stroke-linejoin: miter"/>
    </g>
   </g>
   <g id="line2d_30">
    <path d="M 78.928054 268.63667 
L 135.996236 225.466587 
L 193.064418 224.045811 
L 250.132599 207.965581 
L 364.268963 206.48063 
L 535.473509 189.360326 
" clip-path="url(#p7a508eaf21)" style="fill: none; stroke: #8c564b; stroke-width: 1.8; stroke-linecap: square"/>
    <defs>
     <path id="mdec1ca63ec" d="M -2.5 2.5 
L 2.5 2.5 
L 2.5 -2.5 
L -2.5 -2.5 
z
" style="stroke: #8c564b; stroke-linejoin: miter"/>
    </defs>
    <g clip-path="url(#p7a508eaf21)">
     <use xlink:href="#mdec1ca63ec" x="78.928054" y="268.63667" style="fill: #8c564b; stroke: #8c564b; stroke-linejoin: miter"/>
     <use xlink:href="#mdec1ca63ec" x="135.996236" y="225.466587" style="fill: #8c564b; stroke: #8c564b; stroke-linejoin: miter"/>
     <use xlink:href="#mdec1ca63ec" x="193.064418" y="224.045811" style="fill: #8c564b; stroke: #8c564b; stroke-linejoin: miter"/>
     <use xlink:href="#mdec1ca63ec" x="250.132599" y="207.965581" style="fill: #8c564b; stroke: #8c564b; stroke-linejoin: miter"/>
     <use xlink:href="#mdec1ca63ec" x="364.268963" y="206.48063" style="fill: #8c564b; stroke: #8c564b; stroke-linejoin: miter"/>
     <use xlink:href="#mdec1ca63ec" x="535.473509" y="189.360326" style="fill: #8c564b; stroke: #8c564b; stroke-linejoin: miter"/>
    </g>
   </g>
   <g id="patch_3">
    <path d="M 56.100781 280.366125 
L 56.100781 22.318125 
" style="fill: none; stroke: #000000; stroke-width: 0.8; stroke-linejoin: miter; stroke-linecap: square"/>
   </g>
   <g id="patch_4">
    <path d="M 558.300781 280.366125 
L 558.300781 22.318125 
" style="fill: none; stroke: #000000; stroke-width: 0.8; stroke-linejoin: miter; stroke-linecap: square"/>
   </g>
   <g id="patch_5">
    <path d="M 56.100781 280.366125 
L 558.300781 280.366125 
" style="fill: none; stroke: #000000; stroke-width: 0.8; stroke-linejoin: miter; stroke-linecap: square"/>
   </g>
   <g id="patch_6">
    <path d="M 56.100781 22.318125 
L 558.300781 22.318125 
" style="fill: none; stroke: #000000; stroke-width: 0.8; stroke-linejoin: miter; stroke-linecap: square"/>
   </g>
   <g id="text_15">
    <!-- Partition-function error under float32 and float64 (simplex dimension 3) -->
    <g transform="translate(91.821406 16.318125) scale(0.12 -0.12)">
     <defs>
      <path id="DejaVuSans-33" d="M 1259 4147 
L 1259 2394 
L 2053 2394 
Q 2494 2394 2734 2622 
Q 2975 2850 2975 3272 
Q 2975 3691 2734 3919 
Q 2494 4147 2053 4147 
L 1259 4147 
z
M 628 4666 
L 2053 4666 
Q 2838 4666 3239 4311 
Q 3641 3956 3641 3272 
Q 3641 2581 3239 2228 
Q 2838 1875 2053 1875 
L 1259 1875 
L 1259 0 
L 628 0 
L 628 4666 
z
" transform="scale(0.015625)"/>
      <path id="DejaVuSans-13b0" d="M 1831 4863 
L 3431 4863 
L 3431 0 
L 2853 0 
L 2853 4384 
L 1825 4384 
Q 1516 4384 1395 4259 
Q 1275 4134 1275 3809 
L 1275 3500 
L 2222 3500 
L 2222 3053 
L 1275 3053 
L 1275 0 
L 697 0 
L 697 3053 
L 147 3053 
L 147 3500 
L 697 3500 
L 697 3744 
Q 697 4328 969 4595 
Q 1241 4863 1831 4863 
z
" transform="scale(0.015625)"/>
      <path id="DejaVuSans-16" d="M 2597 2516 
Q 3050 2419 3304 2112 
Q 3559 1806 3559 1356 
Q 3559 666 3084 287 
Q 2609 -91 1734 -91 
Q 1441 -91 1130 -33 
Q 819 25 488 141 
L 488 750 
Q 750 597 1062 519 
Q 1375 441 1716 441 
Q 2309 441 2620 675 
Q 2931 909 2931 1356 
Q 2931 1769 2642 2001 
Q 2353 2234 1838 2234 
L 1294 2234 
L 1294 2753 
L 1863 2753 
Q 2328 2753 2575 2939 
Q 2822 3125 2822 3475 
Q 2822 3834 2567 4026 
Q 2313 4219 1838 4219 
Q 1578 4219 1281 4162 
Q 984 4106 628 3988 
L 628 4550 
Q 988 4650 1302 4700 
Q 1616 4750 1894 4750 
Q 2613 4750 3031 4423 
Q 3450 4097 3450 3541 
Q 3450 3153 3228 2886 
Q 3006 2619 2597 2516 
z
" transform="scale(0.015625)"/>
      <path id="DejaVuSans-b" d="M 1984 4856 
Q 1566 4138 1362 3434 
Q 1159 2731 1159 2009 
Q 1159 1288 1364 580 
Q 1569 -128 1984 -844 
L 1484 -844 
Q 1016 -109 783 600 
Q 550 1309 550 2009 
Q 550 2706 781 3412 
Q 1013 4119 1484 4856 
L 1984 4856 
z
" transform="scale(0.015625)"/>
      <path id="DejaVuSans-5b" d="M 3513 3500 
L 2247 1797 
L 3578 0 
L 2900 0 
L 1881 1375 
L 863 0 
L 184 0 
L 1544 1831 
L 300 3500 
L 978 3500 
L 1906 2253 
L 2834 3500 
L 3513 3500 
z
" transform="scale(0.015625)"/>
      <path id="DejaVuSans-c" d="M 513 4856 
L 1013 4856 
Q 1481 4119 1714 3412 
Q 1947 2706 1947 2009 
Q 1947 1309 1714 600 
Q 1481 -109 1013 -844 
L 513 -844 
Q 928 -128 1133 580 
Q 1338 1288 1338 2009 
Q 1338 2731 1133 3434 
Q 928 4138 513 4856 
z
" transform="scale(0.015625)"/>
     </defs>
     <use xlink:href="#DejaVuSans-33"/>
     <use xlink:href="#DejaVuSans-44" transform="translate(55.8125 0)"/>
     <use xlink:href="#DejaVuSans-55" transform="translate(117.09375 0)"/>
     <use xlink:href="#DejaVuSans-57" transform="translate(158.203125 0)"/>
     <use xlink:href="#DejaVuSans-4c" transform="translate(197.40625 0)"/>
     <use xlink:href="#DejaVuSans-57" transform="translate(225.1875 0)"/>
     <use xlink:href="#DejaVuSans-4c" transform="translate(264.390625 0)"/>
     <use xlink:href="#DejaVuSans-52" transform="translate(292.171875 0)"/>
     <use xlink:href="#DejaVuSans-51" transform="translate(353.359375 0)"/>
     <use xlink:href="#DejaVuSans-10" transform="translate(416.734375 0)"/>
     <use xlink:href="#DejaVuSans-49" transform="translate(452.8125 0)"/>
     <use xlink:href="#DejaVuSans-58" transform="translate(488.015625 0)"/>
     <use xlink:href="#DejaVuSans-51" transform="translate(551.390625 0)"/>
     <use xlink:href="#DejaVuSans-46" transform="translate(614.765625 0)"/>
     <use xlink:href="#DejaVuSans-57" transform="translate(669.75 0)"/>
     <use xlink:href="#DejaVuSans-4c" transform="translate(708.953125 0)"/>
     <use xlink:href="#DejaVuSans-52" transform="translate(736.734375 0)"/>
     <use xlink:href="#DejaVuSans-51" transform="translate(797.921875 0)"/>
     <use xlink:href="#DejaVuSans-3" transform="translate(861.296875 0)"/>
     <use xlink:href="#DejaVuSans-48" transform="translate(893.078125 0)"/>
     <use xlink:href="#DejaVuSans-55" transform="translate(954.609375 0)"/>
     <use xlink:href="#DejaVuSans-55" transform="translate(993.96875 0)"/>
     <use xlink:href="#DejaVuSans-52" transform="translate(1032.875 0)"/>
     <use xlink:href="#DejaVuSans-55" transform="translate(1094.0625 0)"/>
     <use xlink:href="#DejaVuSans-3" transform="translate(1135.171875 0)"/>
     <use xlink:href="#DejaVuSans-58" transform="translate(1166.953125 0)"/>
     <use xlink:href="#DejaVuSans-51" transform="translate(1230.328125 0)"/>
     <use xlink:href="#DejaVuSans-47" transform="translate(1293.703125 0)"/>
     <use xlink:href="#DejaVuSans-48" transform="translate(1357.1875 0)"/>
     <use xlink:href="#DejaVuSans-55" transform="translate(1418.71875 0)"/>
     <use xlink:href="#DejaVuSans-3" transform="translate(1459.828125 0)"/>
     <use xlink:href="#DejaVuSans-13b0" transform="translate(1491.609375 0)"/>
     <use xlink:href="#DejaVuSans-52" transform="translate(1554.59375 0)"/>
     <use xlink:href="#DejaVuSans-44" transform="translate(1615.78125 0)"/>
     <use xlink:href="#DejaVuSans-57" transform="translate(1677.0625 0)"/>
     <use xlink:href="#DejaVuSans-16" transform="translate(1716.265625 0)"/>
     <use xlink:href="#DejaVuSans-15" transform="translate(1779.890625 0)"/>
     <use xlink:href="#DejaVuSans-3" transform="translate(1843.515625 0)"/>
     <use xlink:href="#DejaVuSans-44" transform="translate(1875.296875 0)"/>
     <use xlink:href="#DejaVuSans-51" transform="translate(1936.578125 0)"/>
     <use xlink:href="#DejaVuSans-47" transform="translate(1999.953125 0)"/>
     <use xlink:href="#DejaVuSans-3" transform="translate(2063.4375 0)"/>
     <use xlink:href="#DejaVuSans-13b0" transform="translate(2095.21875 0)"/>
     <use xlink:href="#DejaVuSans-52" transform="translate(2158.203125 0)"/>
     <use xlink:href="#DejaVuSans-44" transform="translate(2219.390625 0)"/>
     <use xlink:href="#DejaVuSans-57" transform="translate(2280.671875 0)"/>
     <use xlink:href="#DejaVuSans-19" transform="translate(2319.875 0)"/>
     <use xlink:href="#DejaVuSans-17" transform="translate(2383.5 0)"/>
     <use xlink:href="#DejaVuSans-3" transform="translate(2447.125 0)"/>
     <use xlink:href="#DejaVuSans-b" transform="translate(2478.90625 0)"/>
     <use xlink:href="#DejaVuSans-56" transform="translate(2517.921875 0)"/>
     <use xlink:href="#DejaVuSans-4c" transform="translate(2570.015625 0)"/>
     <use xlink:href="#DejaVuSans-50" transform="translate(2597.796875 0)"/>
     <use xlink:href="#DejaVuSans-53" transform="translate(2695.203125 0)"/>
     <use xlink:href="#DejaVuSans-4f" transform="translate(2758.6875 0)"/>
     <use xlink:href="#DejaVuSans-48" transform="translate(2786.46875 0)"/>
     <use xlink:href="#DejaVuSans-5b" transform="translate(2846.25 0)"/>
     <use xlink:href="#DejaVuSans-3" transform="translate(2905.4375 0)"/>
     <use xlink:href="#DejaVuSans-47" transform="translate(2937.21875 0)"/>
     <use xlink:href="#DejaVuSans-4c" transform="translate(3000.703125 0)"/>
     <use xlink:href="#DejaVuSans-50" transform="translate(3028.484375 0)"/>
     <use xlink:href="#DejaVuSans-48" transform="translate(3125.890625 0)"/>
     <use xlink:href="#DejaVuSans-51" transform="translate(3187.421875 0)"/>
     <use xlink:href="#DejaVuSans-56" transform="translate(3250.796875 0)"/>
     <use xlink:href="#DejaVuSans-4c" transform="translate(3302.890625 0)"/>
     <use xlink:href="#DejaVuSans-52" transform="translate(3330.671875 0)"/>
     <use xlink:href="#DejaVuSans-51" transform="translate(3391.859375 0)"/>
     <use xlink:href="#DejaVuSans-3" transform="translate(3455.234375 0)"/>
     <use xlink:href="#DejaVuSans-16" transform="translate(3487.015625 0)"/>
     <use xlink:href="#DejaVuSans-c" transform="translate(3550.640625 0)"/>
    </g>
   </g>
  </g>
  <g id="legend_1">
   <g id="patch_7">
    <path d="M 97.396094 376.166125 
L 500.805469 376.166125 
Q 502.805469 376.166125 502.805469 374.166125 
L 502.805469 330.163781 
Q 502.805469 328.163781 500.805469 328.163781 
L 97.396094 328.163781 
Q 95.396094 328.163781 95.396094 330.163781 
L 95.396094 374.166125 
Q 95.396094 376.166125 97.396094 376.166125 
z
" style="fill: #ffffff; opacity: 0.8; stroke: #cccccc; stroke-linejoin: miter"/>
   </g>
   <g id="text_16">
    <!-- Basis and arithmetic precision -->
    <g transform="translate(223.594531 339.762219) scale(0.1 -0.1)">
     <defs>
      <path id="DejaVuSans-25" d="M 1259 2228 
L 1259 519 
L 2272 519 
Q 2781 519 3026 730 
Q 3272 941 3272 1375 
Q 3272 1813 3026 2020 
Q 2781 2228 2272 2228 
L 1259 2228 
z
M 1259 4147 
L 1259 2741 
L 2194 2741 
Q 2656 2741 2882 2914 
Q 3109 3088 3109 3444 
Q 3109 3797 2882 3972 
Q 2656 4147 2194 4147 
L 1259 4147 
z
M 628 4666 
L 2241 4666 
Q 2963 4666 3353 4366 
Q 3744 4066 3744 3513 
Q 3744 3084 3544 2831 
Q 3344 2578 2956 2516 
Q 3422 2416 3680 2098 
Q 3938 1781 3938 1306 
Q 3938 681 3513 340 
Q 3088 0 2303 0 
L 628 0 
L 628 4666 
z
" transform="scale(0.015625)"/>
      <path id="DejaVuSans-4b" d="M 3513 2113 
L 3513 0 
L 2938 0 
L 2938 2094 
Q 2938 2591 2744 2837 
Q 2550 3084 2163 3084 
Q 1697 3084 1428 2787 
Q 1159 2491 1159 1978 
L 1159 0 
L 581 0 
L 581 4863 
L 1159 4863 
L 1159 2956 
Q 1366 3272 1645 3428 
Q 1925 3584 2291 3584 
Q 2894 3584 3203 3211 
Q 3513 2838 3513 2113 
z
" transform="scale(0.015625)"/>
     </defs>
     <use xlink:href="#DejaVuSans-25"/>
     <use xlink:href="#DejaVuSans-44" transform="translate(68.609375 0)"/>
     <use xlink:href="#DejaVuSans-56" transform="translate(129.890625 0)"/>
     <use xlink:href="#DejaVuSans-4c" transform="translate(181.984375 0)"/>
     <use xlink:href="#DejaVuSans-56" transform="translate(209.765625 0)"/>
     <use xlink:href="#DejaVuSans-3" transform="translate(261.859375 0)"/>
     <use xlink:href="#DejaVuSans-44" transform="translate(293.640625 0)"/>
     <use xlink:href="#DejaVuSans-51" transform="translate(354.921875 0)"/>
     <use xlink:href="#DejaVuSans-47" transform="translate(418.296875 0)"/>
     <use xlink:href="#DejaVuSans-3" transform="translate(481.78125 0)"/>
     <use xlink:href="#DejaVuSans-44" transform="translate(513.5625 0)"/>
     <use xlink:href="#DejaVuSans-55" transform="translate(574.84375 0)"/>
     <use xlink:href="#DejaVuSans-4c" transform="translate(615.953125 0)"/>
     <use xlink:href="#DejaVuSans-57" transform="translate(643.734375 0)"/>
     <use xlink:href="#DejaVuSans-4b" transform="translate(682.9375 0)"/>
     <use xlink:href="#DejaVuSans-50" transform="translate(746.3125 0)"/>
     <use xlink:href="#DejaVuSans-48" transform="translate(843.71875 0)"/>
     <use xlink:href="#DejaVuSans-57" transform="translate(905.25 0)"/>
     <use xlink:href="#DejaVuSans-4c" transform="translate(944.453125 0)"/>
     <use xlink:href="#DejaVuSans-46" transform="translate(972.234375 0)"/>
     <use xlink:href="#DejaVuSans-3" transform="translate(1027.21875 0)"/>
     <use xlink:href="#DejaVuSans-53" transform="translate(1059 0)"/>
     <use xlink:href="#DejaVuSans-55" transform="translate(1122.484375 0)"/>
     <use xlink:href="#DejaVuSans-48" transform="translate(1161.390625 0)"/>
     <use xlink:href="#DejaVuSans-46" transform="translate(1222.921875 0)"/>
     <use xlink:href="#DejaVuSans-4c" transform="translate(1277.90625 0)"/>
     <use xlink:href="#DejaVuSans-56" transform="translate(1305.6875 0)"/>
     <use xlink:href="#DejaVuSans-4c" transform="translate(1357.78125 0)"/>
     <use xlink:href="#DejaVuSans-52" transform="translate(1385.5625 0)"/>
     <use xlink:href="#DejaVuSans-51" transform="translate(1446.75 0)"/>
    </g>
   </g>
   <g id="line2d_31">
    <path d="M 99.396094 351.263 
L 109.396094 351.263 
L 119.396094 351.263 
" style="fill: none; stroke-dasharray: 6.66,2.88; stroke-dashoffset: 0; stroke: #1f77b4; stroke-width: 1.8"/>
    <g>
     <use xlink:href="#m51bcbd3ee1" x="109.396094" y="351.263" style="fill: #1f77b4; stroke: #1f77b4; stroke-linejoin: miter"/>
    </g>
   </g>
   <g id="text_17">
    <!-- Monomial, float32 -->
    <g transform="translate(127.396094 354.763) scale(0.1 -0.1)">
     <defs>
      <path id="DejaVuSans-30" d="M 628 4666 
L 1569 4666 
L 2759 1491 
L 3956 4666 
L 4897 4666 
L 4897 0 
L 4281 0 
L 4281 4097 
L 3078 897 
L 2444 897 
L 1241 4097 
L 1241 0 
L 628 0 
L 628 4666 
z
" transform="scale(0.015625)"/>
      <path id="DejaVuSans-f" d="M 750 794 
L 1409 794 
L 1409 256 
L 897 -744 
L 494 -744 
L 750 256 
L 750 794 
z
" transform="scale(0.015625)"/>
     </defs>
     <use xlink:href="#DejaVuSans-30"/>
     <use xlink:href="#DejaVuSans-52" transform="translate(86.28125 0)"/>
     <use xlink:href="#DejaVuSans-51" transform="translate(147.46875 0)"/>
     <use xlink:href="#DejaVuSans-52" transform="translate(210.84375 0)"/>
     <use xlink:href="#DejaVuSans-50" transform="translate(272.03125 0)"/>
     <use xlink:href="#DejaVuSans-4c" transform="translate(369.4375 0)"/>
     <use xlink:href="#DejaVuSans-44" transform="translate(397.21875 0)"/>
     <use xlink:href="#DejaVuSans-4f" transform="translate(458.5 0)"/>
     <use xlink:href="#DejaVuSans-f" transform="translate(486.28125 0)"/>
     <use xlink:href="#DejaVuSans-3" transform="translate(518.0625 0)"/>
     <use xlink:href="#DejaVuSans-13b0" transform="translate(549.84375 0)"/>
     <use xlink:href="#DejaVuSans-52" transform="translate(612.828125 0)"/>
     <use xlink:href="#DejaVuSans-44" transform="translate(674.015625 0)"/>
     <use xlink:href="#DejaVuSans-57" transform="translate(735.296875 0)"/>
     <use xlink:href="#DejaVuSans-16" transform="translate(774.5 0)"/>
     <use xlink:href="#DejaVuSans-15" transform="translate(838.125 0)"/>
    </g>
   </g>
   <g id="line2d_32">
    <path d="M 99.396094 366.263781 
L 109.396094 366.263781 
L 119.396094 366.263781 
" style="fill: none; stroke: #ff7f0e; stroke-width: 1.8; stroke-linecap: square"/>
    <g>
     <use xlink:href="#md0c83b7927" x="109.396094" y="366.263781" style="fill: #ff7f0e; stroke: #ff7f0e; stroke-linejoin: miter"/>
    </g>
   </g>
   <g id="text_18">
    <!-- Monomial, float64 -->
    <g transform="translate(127.396094 369.763781) scale(0.1 -0.1)">
     <use xlink:href="#DejaVuSans-30"/>
     <use xlink:href="#DejaVuSans-52" transform="translate(86.28125 0)"/>
     <use xlink:href="#DejaVuSans-51" transform="translate(147.46875 0)"/>
     <use xlink:href="#DejaVuSans-52" transform="translate(210.84375 0)"/>
     <use xlink:href="#DejaVuSans-50" transform="translate(272.03125 0)"/>
     <use xlink:href="#DejaVuSans-4c" transform="translate(369.4375 0)"/>
     <use xlink:href="#DejaVuSans-44" transform="translate(397.21875 0)"/>
     <use xlink:href="#DejaVuSans-4f" transform="translate(458.5 0)"/>
     <use xlink:href="#DejaVuSans-f" transform="translate(486.28125 0)"/>
     <use xlink:href="#DejaVuSans-3" transform="translate(518.0625 0)"/>
     <use xlink:href="#DejaVuSans-13b0" transform="translate(549.84375 0)"/>
     <use xlink:href="#DejaVuSans-52" transform="translate(612.828125 0)"/>
     <use xlink:href="#DejaVuSans-44" transform="translate(674.015625 0)"/>
     <use xlink:href="#DejaVuSans-57" transform="translate(735.296875 0)"/>
     <use xlink:href="#DejaVuSans-19" transform="translate(774.5 0)"/>
     <use xlink:href="#DejaVuSans-17" transform="translate(838.125 0)"/>
    </g>
   </g>
   <g id="line2d_33">
    <path d="M 237.571094 351.263 
L 247.571094 351.263 
L 257.571094 351.263 
" style="fill: none; stroke-dasharray: 6.66,2.88; stroke-dashoffset: 0; stroke: #2ca02c; stroke-width: 1.8"/>
    <g>
     <use xlink:href="#me184b752c1" x="247.571094" y="351.263" style="fill: #2ca02c; stroke: #2ca02c"/>
    </g>
   </g>
   <g id="text_19">
    <!-- Legendre, float32 -->
    <g transform="translate(265.571094 354.763) scale(0.1 -0.1)">
     <defs>
      <path id="DejaVuSans-2f" d="M 628 4666 
L 1259 4666 
L 1259 531 
L 3531 531 
L 3531 0 
L 628 0 
L 628 4666 
z
" transform="scale(0.015625)"/>
     </defs>
     <use xlink:href="#DejaVuSans-2f"/>
     <use xlink:href="#DejaVuSans-48" transform="translate(53.96875 0)"/>
     <use xlink:href="#DejaVuSans-4a" transform="translate(115.5 0)"/>
     <use xlink:href="#DejaVuSans-48" transform="translate(178.984375 0)"/>
     <use xlink:href="#DejaVuSans-51" transform="translate(240.515625 0)"/>
     <use xlink:href="#DejaVuSans-47" transform="translate(303.890625 0)"/>
     <use xlink:href="#DejaVuSans-55" transform="translate(367.375 0)"/>
     <use xlink:href="#DejaVuSans-48" transform="translate(406.28125 0)"/>
     <use xlink:href="#DejaVuSans-f" transform="translate(467.8125 0)"/>
     <use xlink:href="#DejaVuSans-3" transform="translate(499.59375 0)"/>
     <use xlink:href="#DejaVuSans-13b0" transform="translate(531.375 0)"/>
     <use xlink:href="#DejaVuSans-52" transform="translate(594.359375 0)"/>
     <use xlink:href="#DejaVuSans-44" transform="translate(655.546875 0)"/>
     <use xlink:href="#DejaVuSans-57" transform="translate(716.828125 0)"/>
     <use xlink:href="#DejaVuSans-16" transform="translate(756.03125 0)"/>
     <use xlink:href="#DejaVuSans-15" transform="translate(819.65625 0)"/>
    </g>
   </g>
   <g id="line2d_34">
    <path d="M 237.571094 366.263781 
L 247.571094 366.263781 
L 257.571094 366.263781 
" style="fill: none; stroke: #d62728; stroke-width: 1.8; stroke-linecap: square"/>
    <g>
     <use xlink:href="#mc077f53908" x="247.571094" y="366.263781" style="fill: #d62728; stroke: #d62728"/>
    </g>
   </g>
   <g id="text_20">
    <!-- Legendre, float64 -->
    <g transform="translate(265.571094 369.763781) scale(0.1 -0.1)">
     <use xlink:href="#DejaVuSans-2f"/>
     <use xlink:href="#DejaVuSans-48" transform="translate(53.96875 0)"/>
     <use xlink:href="#DejaVuSans-4a" transform="translate(115.5 0)"/>
     <use xlink:href="#DejaVuSans-48" transform="translate(178.984375 0)"/>
     <use xlink:href="#DejaVuSans-51" transform="translate(240.515625 0)"/>
     <use xlink:href="#DejaVuSans-47" transform="translate(303.890625 0)"/>
     <use xlink:href="#DejaVuSans-55" transform="translate(367.375 0)"/>
     <use xlink:href="#DejaVuSans-48" transform="translate(406.28125 0)"/>
     <use xlink:href="#DejaVuSans-f" transform="translate(467.8125 0)"/>
     <use xlink:href="#DejaVuSans-3" transform="translate(499.59375 0)"/>
     <use xlink:href="#DejaVuSans-13b0" transform="translate(531.375 0)"/>
     <use xlink:href="#DejaVuSans-52" transform="translate(594.359375 0)"/>
     <use xlink:href="#DejaVuSans-44" transform="translate(655.546875 0)"/>
     <use xlink:href="#DejaVuSans-57" transform="translate(716.828125 0)"/>
     <use xlink:href="#DejaVuSans-19" transform="translate(756.03125 0)"/>
     <use xlink:href="#DejaVuSans-17" transform="translate(819.65625 0)"/>
    </g>
   </g>
   <g id="line2d_35">
    <path d="M 373.899219 351.263 
L 383.899219 351.263 
L 393.899219 351.263 
" style="fill: none; stroke-dasharray: 6.66,2.88; stroke-dashoffset: 0; stroke: #9467bd; stroke-width: 1.8"/>
    <g>
     <use xlink:href="#m8124329479" x="383.899219" y="351.263" style="fill: #9467bd; stroke: #9467bd; stroke-linejoin: miter"/>
    </g>
   </g>
   <g id="text_21">
    <!-- Chebyshev, float32 -->
    <g transform="translate(401.899219 354.763) scale(0.1 -0.1)">
     <defs>
      <path id="DejaVuSans-26" d="M 4122 4306 
L 4122 3641 
Q 3803 3938 3442 4084 
Q 3081 4231 2675 4231 
Q 1875 4231 1450 3742 
Q 1025 3253 1025 2328 
Q 1025 1406 1450 917 
Q 1875 428 2675 428 
Q 3081 428 3442 575 
Q 3803 722 4122 1019 
L 4122 359 
Q 3791 134 3420 21 
Q 3050 -91 2638 -91 
Q 1578 -91 968 557 
Q 359 1206 359 2328 
Q 359 3453 968 4101 
Q 1578 4750 2638 4750 
Q 3056 4750 3426 4639 
Q 3797 4528 4122 4306 
z
" transform="scale(0.015625)"/>
      <path id="DejaVuSans-45" d="M 3116 1747 
Q 3116 2381 2855 2742 
Q 2594 3103 2138 3103 
Q 1681 3103 1420 2742 
Q 1159 2381 1159 1747 
Q 1159 1113 1420 752 
Q 1681 391 2138 391 
Q 2594 391 2855 752 
Q 3116 1113 3116 1747 
z
M 1159 2969 
Q 1341 3281 1617 3432 
Q 1894 3584 2278 3584 
Q 2916 3584 3314 3078 
Q 3713 2572 3713 1747 
Q 3713 922 3314 415 
Q 2916 -91 2278 -91 
Q 1894 -91 1617 61 
Q 1341 213 1159 525 
L 1159 0 
L 581 0 
L 581 4863 
L 1159 4863 
L 1159 2969 
z
" transform="scale(0.015625)"/>
     </defs>
     <use xlink:href="#DejaVuSans-26"/>
     <use xlink:href="#DejaVuSans-4b" transform="translate(69.828125 0)"/>
     <use xlink:href="#DejaVuSans-48" transform="translate(133.203125 0)"/>
     <use xlink:href="#DejaVuSans-45" transform="translate(194.734375 0)"/>
     <use xlink:href="#DejaVuSans-5c" transform="translate(258.21875 0)"/>
     <use xlink:href="#DejaVuSans-56" transform="translate(317.40625 0)"/>
     <use xlink:href="#DejaVuSans-4b" transform="translate(369.5 0)"/>
     <use xlink:href="#DejaVuSans-48" transform="translate(432.875 0)"/>
     <use xlink:href="#DejaVuSans-59" transform="translate(494.40625 0)"/>
     <use xlink:href="#DejaVuSans-f" transform="translate(553.59375 0)"/>
     <use xlink:href="#DejaVuSans-3" transform="translate(585.375 0)"/>
     <use xlink:href="#DejaVuSans-13b0" transform="translate(617.15625 0)"/>
     <use xlink:href="#DejaVuSans-52" transform="translate(680.140625 0)"/>
     <use xlink:href="#DejaVuSans-44" transform="translate(741.328125 0)"/>
     <use xlink:href="#DejaVuSans-57" transform="translate(802.609375 0)"/>
     <use xlink:href="#DejaVuSans-16" transform="translate(841.8125 0)"/>
     <use xlink:href="#DejaVuSans-15" transform="translate(905.4375 0)"/>
    </g>
   </g>
   <g id="line2d_36">
    <path d="M 373.899219 366.263781 
L 383.899219 366.263781 
L 393.899219 366.263781 
" style="fill: none; stroke: #8c564b; stroke-width: 1.8; stroke-linecap: square"/>
    <g>
     <use xlink:href="#mdec1ca63ec" x="383.899219" y="366.263781" style="fill: #8c564b; stroke: #8c564b; stroke-linejoin: miter"/>
    </g>
   </g>
   <g id="text_22">
    <!-- Chebyshev, float64 -->
    <g transform="translate(401.899219 369.763781) scale(0.1 -0.1)">
     <use xlink:href="#DejaVuSans-26"/>
     <use xlink:href="#DejaVuSans-4b" transform="translate(69.828125 0)"/>
     <use xlink:href="#DejaVuSans-48" transform="translate(133.203125 0)"/>
     <use xlink:href="#DejaVuSans-45" transform="translate(194.734375 0)"/>
     <use xlink:href="#DejaVuSans-5c" transform="translate(258.21875 0)"/>
     <use xlink:href="#DejaVuSans-56" transform="translate(317.40625 0)"/>
     <use xlink:href="#DejaVuSans-4b" transform="translate(369.5 0)"/>
     <use xlink:href="#DejaVuSans-48" transform="translate(432.875 0)"/>
     <use xlink:href="#DejaVuSans-59" transform="translate(494.40625 0)"/>
     <use xlink:href="#DejaVuSans-f" transform="translate(553.59375 0)"/>
     <use xlink:href="#DejaVuSans-3" transform="translate(585.375 0)"/>
     <use xlink:href="#DejaVuSans-13b0" transform="translate(617.15625 0)"/>
     <use xlink:href="#DejaVuSans-52" transform="translate(680.140625 0)"/>
     <use xlink:href="#DejaVuSans-44" transform="translate(741.328125 0)"/>
     <use xlink:href="#DejaVuSans-57" transform="translate(802.609375 0)"/>
     <use xlink:href="#DejaVuSans-19" transform="translate(841.8125 0)"/>
     <use xlink:href="#DejaVuSans-17" transform="translate(905.4375 0)"/>
    </g>
   </g>
  </g>
 </g>
 <defs>
  <clipPath id="p7a508eaf21">
   <rect x="56.100781" y="22.318125" width="502.2" height="258.048"/>
  </clipPath>
 </defs>
</svg>
